<svg height="464pt" viewBox="-16 0 464 464" width="464pt" xmlns="http://www.w3.org/2000/svg"><path d="m192 0h64v32h-64zm0 0" fill="#915c39"/><path d="m256 101.601562v-37.601562h16v-32h-96v32h16v37.601562c-38.328125 13.535157-63.96875 49.75-64 90.398438v272h192v-272c-.03125-40.648438-25.671875-76.863281-64-90.398438zm0 0" fill="#f6d7c9"/><path d="m208 128 48 8-32 296-48-8zm0 0" fill="#eca518"/><path d="m192.0625 275.375 44.105469 44.105469 2.207031-20.425781-44.101562-44.09375zm0 0" fill="#bc171f"/><path d="m195.96875 239.28125 44.09375 44.09375 2.210938-20.414062-44.097657-44.097657zm0 0" fill="#bc171f"/><g fill="#eb3936"><path d="m312 304c13.253906 0 24 10.746094 24 24 0-13.253906 10.746094-24 24-24s24 10.746094 24 24c0 13.257812-34.742188 56-48 56s-48-42.742188-48-56c0-13.253906 10.746094-24 24-24zm0 0"/><path d="m24 104c13.253906 0 24 10.746094 24 24 0-13.253906 10.746094-24 24-24s24 10.746094 24 24c0 13.257812-34.742188 56-48 56s-48-42.742188-48-56c0-13.253906 10.746094-24 24-24zm0 0"/><path d="m360 32c13.253906 0 24 10.746094 24 24 0-13.253906 10.746094-24 24-24s24 10.746094 24 24c0 13.257812-34.742188 56-48 56s-48-42.742188-48-56c0-13.253906 10.746094-24 24-24zm0 0"/></g></svg>