<?xml version="1.0" encoding="utf-8"?>
<!-- Generator: Adobe Illustrator 24.3.0, SVG Export Plug-In . SVG Version: 6.00 Build 0)  -->
<svg version="1.1" id="Слой_1" xmlns:mydata="http://www.w3.org/2000/svg"
	 xmlns="http://www.w3.org/2000/svg" xmlns:xlink="http://www.w3.org/1999/xlink" x="0px" y="0px" viewBox="0 0 111.9 129.2"
	 style="enable-background:new 0 0 111.9 129.2;" xml:space="preserve">
<style type="text/css">
	.st0{fill-rule:evenodd;clip-rule:evenodd;fill:#7410F7;}
</style>
<g>
	<g>
		<g>
			<path id="path-id-98272" class="st0" d="M55.9,129.2L0,96.9V32.3L55.9,0l55.9,32.3v64.6L55.9,129.2z M5.7,93.6l50.3,29l50.3-29
				v-58l-50.3-29l-50.3,29L5.7,93.6z M47.8,91.5l10.2-53.8h6L53.7,91.5H47.8z M45.2,84.7L16.9,69.2v-8.6l28.3-15.4v10.1l-19.8,9.5
				l19.8,9.9V84.7z M66.6,84.7v-10l19.8-9.8l-19.8-9.7v-10L95,60.7v8.5L66.6,84.7z"/>
		</g>
	</g>
</g>
</svg>
