<svg width="709" height="709" viewBox="0 0 709 709" fill="none" xmlns="http://www.w3.org/2000/svg">
<path d="M354.192 708.384C549.807 708.384 708.384 549.807 708.384 354.192C708.384 158.577 549.807 0 354.192 0C158.577 0 0 158.577 0 354.192C0 549.807 158.577 708.384 354.192 708.384Z" fill="#525967"/>
<path d="M354.192 27.072C418.89 27.072 482.136 46.2572 535.93 82.2016C589.725 118.146 631.653 169.235 656.412 229.009C681.171 288.782 687.649 354.555 675.027 418.01C662.405 481.465 631.249 539.752 585.501 585.501C539.752 631.249 481.465 662.404 418.01 675.026C354.555 687.648 288.782 681.17 229.009 656.411C169.235 631.653 118.146 589.725 82.2018 535.93C46.2574 482.136 27.0722 418.89 27.0722 354.192C27.1915 267.471 61.6942 184.336 123.015 123.015C184.336 61.694 267.471 27.1914 354.192 27.072ZM354.192 0C284.14 0 215.66 20.773 157.414 59.6921C99.1671 98.6112 53.7694 153.928 26.9614 218.649C0.153466 283.369 -6.86072 354.585 6.80586 423.291C20.4724 491.998 54.2059 555.109 103.741 604.644C153.275 654.178 216.386 687.912 285.093 701.578C353.799 715.245 425.015 708.231 489.736 681.423C554.456 654.615 609.773 609.217 648.692 550.971C687.611 492.724 708.384 424.245 708.384 354.192C708.384 260.254 671.068 170.164 604.644 103.74C538.22 37.3165 448.13 0 354.192 0Z" fill="#454B57"/>
<path d="M286.515 562.195C304.943 562.195 322.617 554.875 335.648 541.844C348.679 528.813 355.999 511.139 355.999 492.711V421.872H286.515C268.086 421.872 250.412 429.193 237.381 442.224C224.35 455.255 217.03 472.929 217.03 491.357C217.03 509.786 224.35 527.459 237.381 540.49C250.412 553.521 268.086 560.842 286.515 560.842V562.195Z" fill="#0ACF83"/>
<path d="M215.223 354.192C215.457 345.066 217.487 336.075 221.197 327.734C224.907 319.393 230.224 311.865 236.844 305.58C243.465 299.295 251.259 294.376 259.781 291.104C268.304 287.832 277.387 286.271 286.513 286.512H354.193V421.872H286.513C277.387 422.112 268.304 420.551 259.781 417.279C251.259 414.008 243.465 409.088 236.844 402.803C230.224 396.518 224.907 388.99 221.197 380.649C217.487 372.308 215.457 363.317 215.223 354.192Z" fill="#A259FF"/>
<path d="M215.225 215.222C215.282 205.981 217.182 196.845 220.813 188.347C224.444 179.849 229.733 172.161 236.372 165.733C243.01 159.305 250.864 154.265 259.474 150.909C268.084 147.553 277.277 145.948 286.515 146.188H354.195V286.512H286.515C277.085 286.76 267.704 285.086 258.942 281.591C250.181 278.096 242.223 272.854 235.553 266.184C228.883 259.514 223.641 251.556 220.146 242.794C216.651 234.033 214.977 224.652 215.225 215.222Z" fill="#F24E1E"/>
<path d="M354.196 146.188H421.876C440.484 146.188 458.33 153.58 471.488 166.738C484.646 179.896 492.038 197.742 492.038 216.35C492.038 234.958 484.646 252.804 471.488 265.962C458.33 279.12 440.484 286.512 421.876 286.512H354.196V146.188Z" fill="#FF7262"/>
<path d="M493.165 354.192C493.517 367.928 489.789 381.46 482.451 393.078C475.113 404.695 464.496 413.876 451.941 419.461C439.386 425.045 425.457 426.781 411.916 424.45C398.374 422.119 385.827 415.825 375.862 406.365C365.897 396.904 358.961 384.701 355.93 371.299C352.899 357.896 353.91 343.896 358.835 331.068C363.759 318.24 372.377 307.161 383.598 299.23C394.819 291.299 408.139 286.873 421.875 286.512C431.001 286.271 440.085 287.832 448.607 291.104C457.129 294.376 464.923 299.295 471.544 305.58C478.164 311.865 483.482 319.393 487.191 327.734C490.901 336.075 492.931 345.066 493.165 354.192Z" fill="#1ABCFE"/>
</svg>
