<svg width="533" height="533" viewBox="0 0 533 533" fill="none" xmlns="http://www.w3.org/2000/svg">
<path d="M523.262 242.782L523.24 242.771L290.074 9.45385C277.495 -3.1549 255.482 -3.14405 242.947 9.443L9.73782 242.782C3.47005 249.086 0 257.452 0 266.339C0 275.236 3.47005 283.612 9.75951 289.906L242.925 523.223C249.214 529.527 257.586 533 266.5 533C275.413 533 283.785 529.527 290.053 523.234L523.24 289.906C529.529 283.612 532.999 275.236 532.999 266.339C532.999 257.452 529.529 249.086 523.262 242.782Z" fill="#EF473B"/>
<path opacity="0.1" d="M525.914 281.821L290.298 517.58C283.965 523.939 275.505 527.448 266.499 527.448C257.493 527.448 249.034 523.939 242.679 517.569L7.08477 281.821C4.33178 279.066 2.22806 275.861 0.597412 272.444C1.80922 279.017 4.93497 285.079 9.75915 289.905L242.925 523.223C249.214 529.527 257.586 533 266.499 533C275.413 533 283.784 529.527 290.052 523.234L523.239 289.905C528.064 285.079 531.191 279.017 532.403 272.444C530.772 275.861 528.667 279.066 525.914 281.821Z" fill="#010101"/>
<path d="M377.541 222.083C369.216 222.083 361.507 224.527 354.839 228.53L304.469 178.16C308.471 171.494 310.916 163.785 310.916 155.458C310.916 130.962 290.985 111.042 266.5 111.042C258.285 111.042 250.681 113.436 244.073 117.339L189.58 62.8394L173.882 78.5454L228.374 133.044C224.475 139.648 222.083 147.248 222.083 155.458C222.083 176.097 236.297 193.332 255.395 198.297V334.703C236.297 339.668 222.083 356.903 222.083 377.541C222.083 402.038 242.014 421.958 266.5 421.958C290.985 421.958 310.916 402.038 310.916 377.541C310.916 356.903 296.703 339.668 277.604 334.703V198.297C281.529 197.277 285.211 195.725 288.639 193.733L339.266 244.361C335.464 250.905 333.124 258.401 333.124 266.5C333.124 290.996 353.056 310.917 377.541 310.917C402.027 310.917 421.958 290.996 421.958 266.5C421.958 242.004 402.027 222.083 377.541 222.083Z" fill="white"/>
<path opacity="0.2" d="M9.73782 248.334L242.947 14.9951C255.482 2.40802 277.495 2.39718 290.074 15.0059L523.24 248.323L523.262 248.334C528.865 253.97 532.078 261.287 532.728 269.116C532.805 268.187 532.999 267.282 532.999 266.339C532.999 257.452 529.529 249.086 523.262 242.782L523.24 242.771L290.074 9.45385C277.495 -3.1549 255.482 -3.14405 242.947 9.443L9.73782 242.782C3.47005 249.086 0 257.452 0 266.339C0 267.281 0.193834 268.185 0.271097 269.114C0.923086 261.284 4.13559 253.969 9.73782 248.334Z" fill="white"/>
<path d="M411.939 238.747C418.106 246.375 421.958 255.947 421.958 266.5C421.958 290.996 402.027 310.916 377.542 310.916C353.056 310.916 333.125 290.996 333.125 266.5C333.125 258.4 335.465 250.905 339.267 244.36L288.639 193.733C285.211 195.724 281.53 197.276 277.604 198.297V334.702C296.703 339.667 310.917 356.902 310.917 377.541C310.917 402.037 290.986 421.958 266.5 421.958C255.141 421.958 244.873 417.546 237.01 410.504L319.887 493.381L493.177 319.986L411.939 238.747ZM304.47 178.16L354.84 228.53C361.508 224.527 369.216 222.083 377.542 222.083C388.093 222.083 397.668 225.937 405.298 232.107L301.415 128.222L301.361 128.267C307.256 135.805 310.917 145.167 310.917 155.458C310.917 163.785 308.472 171.493 304.47 178.16Z" fill="url(#paint0_linear_17_82)"/>
<path d="M523.262 242.782L523.24 242.771L290.074 9.45385C277.495 -3.1549 255.482 -3.14405 242.947 9.443L9.73782 242.782C3.47005 249.086 0 257.452 0 266.339C0 275.236 3.47005 283.612 9.75951 289.906L242.925 523.223C249.214 529.527 257.586 533 266.5 533C275.413 533 283.785 529.527 290.053 523.234L523.24 289.906C529.529 283.612 532.999 275.236 532.999 266.339C532.999 257.452 529.529 249.086 523.262 242.782Z" fill="url(#paint1_linear_17_82)"/>
<defs>
<linearGradient id="paint0_linear_17_82" x1="214.739" y1="214.889" x2="406.559" y2="406.709" gradientUnits="userSpaceOnUse">
<stop stop-color="#010101" stop-opacity="0.1"/>
<stop offset="1" stop-color="#010101" stop-opacity="0"/>
</linearGradient>
<linearGradient id="paint1_linear_17_82" x1="44.7235" y1="163.008" x2="488.213" y2="369.81" gradientUnits="userSpaceOnUse">
<stop stop-color="white" stop-opacity="0.2"/>
<stop offset="1" stop-color="white" stop-opacity="0"/>
</linearGradient>
</defs>
</svg>
