<svg width="658" height="658" viewBox="0 0 658 658" fill="none" xmlns="http://www.w3.org/2000/svg">
<path d="M329 658C510.702 658 658 510.702 658 329C658 147.298 510.702 0 329 0C147.298 0 0 147.298 0 329C0 510.702 147.298 658 329 658Z" fill="#214674"/>
<path d="M403.354 325.052C429.674 334.264 443.492 350.056 443.492 373.086C443.492 388.22 438.228 399.406 427.042 408.618C415.856 417.172 400.722 422.436 380.324 422.436C361.242 422.436 343.476 417.172 327.026 408.618C325.052 407.302 323.736 405.328 323.736 402.696C324.394 398.748 325.71 394.142 327.684 389.536C329.658 385.588 330.974 382.298 332.948 379.008C334.922 376.376 337.554 375.718 340.844 377.034C355.32 383.614 367.164 387.562 378.35 387.562C383.614 387.562 388.22 386.904 391.51 384.93C394.8 382.956 396.116 380.324 396.116 377.692C396.116 371.77 391.51 367.164 382.298 364.532L365.848 358.61C340.844 349.398 328.342 334.922 328.342 313.866C328.342 298.732 333.606 286.888 344.134 278.334C354.662 269.78 368.48 261.884 386.246 261.884C394.8 261.884 404.67 263.2 415.198 265.832C424.41 267.806 431.648 272.412 438.228 276.36C440.202 277.676 441.518 279.65 441.518 282.282C441.518 286.888 440.202 291.494 438.228 296.758C436.254 301.364 434.28 305.312 431.648 307.944C429.674 309.918 427.042 310.576 425.068 309.26C409.934 302.68 397.432 299.39 386.904 299.39C382.956 299.39 379.666 300.048 377.692 302.022C375.718 303.996 374.402 305.97 374.402 308.602C374.402 313.208 378.35 317.156 385.588 319.788L403.354 325.052Z" fill="#F6F6F6"/>
<path d="M525.742 348.74C517.188 355.978 512.582 366.506 512.582 380.982V432.964C512.582 450.072 507.318 463.232 495.474 472.444C483.63 481.656 469.812 485.604 454.02 486.262H444.808V464.548C444.808 461.916 446.124 459.942 448.756 459.284C454.678 457.31 457.31 454.678 459.942 452.046C465.864 446.782 470.47 437.57 470.47 425.726V383.614C470.47 369.138 471.786 357.952 477.05 350.056C480.998 344.134 487.578 338.87 496.79 333.606C500.738 331.632 500.738 325.71 496.79 323.078C485.604 316.498 478.366 308.602 473.76 298.732C470.47 291.494 470.47 281.624 470.47 269.122V230.958C470.47 218.456 466.522 209.244 461.258 204.638C458.626 202.006 455.336 199.374 449.414 198.058C446.782 197.4 445.466 194.768 445.466 192.136V178.318C445.466 175.028 448.098 172.396 451.388 172.396C458.626 172.396 463.89 172.396 469.154 172.396C479.024 172.396 487.578 177.66 494.816 183.582C502.712 190.162 508.634 198.058 511.924 209.244C513.898 215.166 513.898 221.088 513.898 227.01V271.096C513.898 286.888 518.504 298.732 526.4 305.97C530.348 309.918 535.612 313.208 544.166 316.498C546.798 317.156 548.114 319.788 548.114 321.762V332.948C548.114 335.58 546.798 337.554 544.166 338.87C534.954 341.502 529.69 344.792 525.742 348.74Z" fill="#F6F6F6"/>
<path d="M202.664 172.396C199.374 172.396 196.742 172.396 194.11 172.396C184.24 172.396 175.686 177.66 168.448 183.582C160.552 190.162 153.314 198.058 151.34 209.244C150.024 215.824 150.682 221.088 150.682 227.01V271.096C150.682 286.888 144.76 298.074 136.864 305.97C132.916 309.918 125.02 313.208 115.808 316.498C113.176 317.814 111.86 319.788 111.86 322.42V333.606C111.86 336.238 113.176 338.212 115.808 339.528C123.704 342.16 130.942 345.45 135.548 349.398C144.102 356.636 150.024 367.164 150.024 381.64V433.622C150.024 450.73 153.972 463.89 165.816 473.102C177.66 482.314 191.478 486.262 207.27 486.92H211.876C215.166 486.92 217.798 484.288 217.798 480.998V465.206C217.798 462.574 216.482 460.6 213.85 459.942C207.928 457.968 203.98 455.336 201.348 452.704C195.426 447.44 192.136 438.228 192.136 426.384V384.272C192.136 369.796 189.504 358.61 184.24 350.714C180.292 344.792 173.712 339.528 164.5 334.264C160.552 332.29 160.552 326.368 164.5 323.736C175.686 317.156 182.924 309.26 187.53 299.39C190.82 292.152 192.136 282.282 192.136 269.78V231.616C192.136 219.114 194.768 209.902 200.032 205.296C202.664 202.664 207.27 200.69 213.85 198.716C214.508 198.716 215.166 198.716 215.824 198.716H219.772C223.062 198.716 225.694 196.084 225.694 192.794V178.976C225.694 175.686 223.062 173.054 219.772 173.054L202.664 172.396Z" fill="#F6F6F6"/>
<path d="M309.26 382.298H301.364C292.81 382.298 289.52 377.692 289.52 368.48V198.058C289.52 187.53 286.23 180.292 282.94 176.344C278.992 172.396 272.412 172.396 263.2 172.396H248.724C245.434 172.396 242.802 175.028 242.802 178.318V198.058V377.034C242.802 391.51 246.092 401.38 252.014 408.618C257.936 415.198 267.148 418.488 280.966 418.488C289.52 418.488 298.732 417.83 308.602 416.514C311.234 415.856 313.208 413.882 313.866 411.25C313.866 409.276 313.866 406.644 313.866 403.354C312.55 395.458 311.234 388.878 309.26 382.298Z" fill="#F6F6F6"/>
</svg>
