<svg width="550" height="551" viewBox="0 0 550 551" fill="none" xmlns="http://www.w3.org/2000/svg">
<path d="M538.491 549.949C536.662 549.951 534.859 549.516 533.232 548.678C531.606 547.841 530.203 546.627 529.142 545.137C521.924 534.94 508.176 524.995 493.579 514.477C469.748 497.291 442.754 477.814 435.72 449.629C435.323 448.093 435.252 446.491 435.511 444.926C435.769 443.361 436.352 441.868 437.221 440.541C438.091 439.214 439.228 438.084 440.559 437.222C441.891 436.36 443.388 435.786 444.954 435.536C466.448 431.962 497.612 423.621 517.135 418.167C497.154 398.69 454.51 362.485 397.315 343.122C394.566 342.19 392.272 340.249 390.899 337.691C386.339 329.213 381.275 317.595 375.432 304.167C340.693 224.471 276.005 76.0991 101.878 57.2176C99.9968 57.019 98.194 56.3577 96.6306 55.2928C73.9223 39.7109 43.6522 22.9145 34.3718 22.9145C22.9145 22.9145 22.9145 22.9145 22.9145 34.3718C23.3041 39.7567 36.0216 57.2863 43.6293 67.7353C59.2111 89.1375 68.7436 102.84 68.7436 114.573C68.7436 129.788 92.9413 193.811 110.608 209.003C112.471 210.612 113.767 212.777 114.304 215.179C114.84 217.581 114.589 220.092 113.587 222.34C111.8 226.35 110.013 230.108 108.294 233.774C98.9908 253.343 91.6581 268.787 91.6581 309.346C91.6581 351.807 109.509 378.09 126.03 378.09C131.484 374.332 137.487 340.808 137.487 309.346C137.493 306.624 138.469 303.992 140.238 301.924C142.008 299.855 144.457 298.484 147.146 298.057C149.834 297.629 152.587 298.173 154.911 299.591C157.236 301.009 158.979 303.208 159.829 305.794C160.127 306.711 190.236 397.246 247.225 437.461C249.71 439.218 251.397 441.889 251.912 444.889C252.428 447.888 251.731 450.97 249.975 453.456C248.218 455.941 245.546 457.627 242.547 458.143C239.547 458.659 236.466 457.962 233.98 456.205C198.05 430.839 172.409 389.318 156.735 357.467C152.496 380.954 143.697 401.004 126.03 401.004C97.593 401.004 68.7436 369.52 68.7436 309.346C68.7436 263.655 77.9094 244.361 87.6022 223.944L89.4812 220.002C67.5749 194.04 45.8291 133.317 45.8291 114.573C45.4395 109.188 32.7219 91.6581 25.1143 81.2091C9.53244 59.8069 0 46.104 0 34.3718C0 10.2886 10.2886 0 34.3718 0C53.7804 0 92.4601 24.7935 107.24 34.7613C292.435 56.4156 362.622 217.436 396.421 295.025C401.233 306.024 405.358 315.533 409.07 322.934C493.029 352.884 545.045 413.905 547.245 416.54C548.468 417.993 549.311 419.728 549.698 421.588C550.084 423.448 550.002 425.375 549.459 427.195C548.916 429.016 547.929 430.672 546.586 432.017C545.244 433.361 543.588 434.35 541.768 434.895C539.706 435.514 496.741 448.369 462.782 455.449C471.718 470.458 489.592 483.359 507.007 495.893C523.162 507.58 538.423 518.579 547.841 531.869C549.055 533.584 549.775 535.599 549.921 537.696C550.067 539.792 549.633 541.888 548.668 543.754C547.703 545.621 546.243 547.186 544.448 548.278C542.653 549.371 540.593 549.949 538.491 549.949Z" fill="#018FB4"/>
<path d="M137.487 126.03C134.448 126.03 131.534 124.823 129.386 122.674C127.237 120.526 126.03 117.611 126.03 114.573C126.03 111.534 124.823 108.62 122.674 106.471C120.525 104.323 117.611 103.115 114.573 103.115C111.534 103.115 108.62 101.908 106.471 99.7597C104.322 97.611 103.115 94.6968 103.115 91.6582C103.115 88.6195 104.322 85.7053 106.471 83.5567C108.62 81.408 111.534 80.2009 114.573 80.2009C133.523 80.2009 148.944 95.6224 148.944 114.573C148.944 117.611 147.737 120.526 145.589 122.674C143.44 124.823 140.526 126.03 137.487 126.03Z" fill="#018FB4"/>
<path d="M547.841 531.846C538.423 518.579 523.162 507.557 507.007 495.893C489.592 483.359 471.718 470.458 462.782 455.449C496.741 448.346 539.706 435.514 541.768 434.895C543.586 434.351 545.24 433.364 546.582 432.023C547.924 430.682 548.912 429.028 549.457 427.211C550.002 425.394 550.088 423.469 549.706 421.611C549.323 419.752 548.486 418.018 547.268 416.563C545.045 413.905 493.029 352.861 409.07 322.934C405.358 315.533 401.233 306.001 396.444 295.025C362.622 217.436 292.389 56.4156 107.217 34.7613C92.4601 24.7935 53.7804 0 34.3718 0C10.3115 0 0 10.2886 0 34.3718C0 46.104 9.55536 59.8069 25.1372 81.2091C32.7219 91.6581 45.4395 109.165 45.8291 114.573C45.8291 133.317 67.5979 194.04 89.4583 220.002L87.5793 223.944C77.9094 244.361 68.7436 263.655 68.7436 309.346C68.7436 369.52 97.5701 401.004 126.03 401.004C143.674 401.004 152.496 380.954 156.735 357.467C172.409 389.318 198.05 430.839 233.98 456.205C236.463 457.959 239.54 458.654 242.535 458.138C245.531 457.623 248.198 455.938 249.952 453.456C251.705 450.973 252.4 447.896 251.885 444.9C251.369 441.905 249.685 439.237 247.202 437.484C190.236 397.246 160.127 306.711 159.829 305.794C158.979 303.208 157.236 301.009 154.911 299.591C152.587 298.173 149.834 297.629 147.146 298.057C144.457 298.484 142.008 299.855 140.238 301.924C138.469 303.992 137.493 306.624 137.487 309.346C137.487 340.808 131.484 374.332 126.03 378.09C109.509 378.09 91.6581 351.807 91.6581 309.346C91.6581 268.81 98.9908 253.343 108.294 233.774C110.013 230.108 111.8 226.35 113.587 222.34C114.589 220.092 114.84 217.581 114.304 215.179C113.767 212.777 112.471 210.612 110.608 209.003C92.9642 193.811 68.7436 129.788 68.7436 114.573C68.7436 102.84 59.1882 89.1375 43.6293 67.7354C36.0216 57.2863 23.3041 39.7796 22.9145 34.3718C22.9145 22.9145 22.9145 22.9145 34.3718 22.9145C43.6522 22.9145 73.9223 39.7109 96.6306 55.2928C98.2007 56.3613 100.012 57.0227 101.901 57.2176C276.005 76.0992 340.693 224.471 375.432 304.167C381.298 317.595 386.339 329.213 390.899 337.691C392.272 340.249 394.566 342.19 397.315 343.122C454.51 362.485 497.154 398.713 517.135 418.167C497.612 423.621 466.448 431.962 444.954 435.536C443.395 435.796 441.907 436.376 440.582 437.239C439.258 438.102 438.127 439.23 437.259 440.551C436.392 441.873 435.807 443.359 435.542 444.918C435.277 446.476 435.338 448.072 435.72 449.606C442.754 477.791 469.771 497.291 493.579 514.477C508.176 525.018 521.924 534.94 529.142 545.114C530.007 546.354 531.108 547.412 532.383 548.225C533.658 549.037 535.081 549.59 536.571 549.85C538.06 550.11 539.587 550.073 541.062 549.741C542.537 549.408 543.931 548.787 545.165 547.913C546.399 547.039 547.448 545.93 548.251 544.648C549.054 543.367 549.595 541.94 549.844 540.448C550.093 538.957 550.044 537.431 549.7 535.958C549.356 534.486 548.724 533.096 547.841 531.869V531.846ZM103.115 91.6581C103.115 94.6968 104.322 97.611 106.471 99.7596C108.62 101.908 111.534 103.115 114.573 103.115C117.611 103.115 120.525 104.322 122.674 106.471C124.823 108.62 126.03 111.534 126.03 114.573C126.03 117.611 127.237 120.526 129.386 122.674C131.534 124.823 134.449 126.03 137.487 126.03C140.526 126.03 143.44 124.823 145.589 122.674C147.737 120.526 148.944 117.611 148.944 114.573C148.944 95.6223 133.523 80.2009 114.573 80.2009C111.534 80.2009 108.62 81.408 106.471 83.5566C104.322 85.7053 103.115 88.6195 103.115 91.6581Z" fill="url(#paint0_linear_16_70)"/>
<defs>
<linearGradient id="paint0_linear_16_70" x1="-51.6264" y1="133.065" x2="598.757" y2="436.361" gradientUnits="userSpaceOnUse">
<stop stop-color="white" stop-opacity="0.2"/>
<stop offset="1" stop-color="white" stop-opacity="0"/>
</linearGradient>
</defs>
</svg>
