<svg width="504" height="588" viewBox="0 0 504 588" fill="none" xmlns="http://www.w3.org/2000/svg">
<path d="M479.789 128.653L275.903 6.37076C268.579 2.19566 260.295 0 251.865 0C243.435 0 235.15 2.19566 227.827 6.37076L23.9272 128.64C16.5792 133.143 10.5167 139.464 6.32543 146.995C2.13415 154.525 -0.0442509 163.008 0.000681255 171.626V415.836C-0.0434023 424.459 2.13502 432.948 6.3259 440.484C10.5168 448.021 16.5787 454.35 23.9272 458.862L77.3944 490.79L77.6961 490.961C104.692 504.773 115.029 504.773 127.005 504.773C169.165 504.773 195.361 477.489 195.361 433.558V196.773C195.385 193.816 194.236 190.971 192.166 188.861C190.095 186.751 187.272 185.549 184.316 185.518H154.959C152.003 185.549 149.18 186.751 147.109 188.861C145.038 190.971 143.889 193.816 143.914 196.773V433.558C144.021 436.948 143.249 440.308 141.675 443.312C140.101 446.316 137.776 448.862 134.928 450.703C127.189 455.425 115.947 454.428 103.262 447.882L52.025 417.043C51.8289 416.909 51.6688 416.729 51.5589 416.519C51.4491 416.308 51.3929 416.074 51.3954 415.836V175.076C51.4038 174.799 51.4785 174.529 51.6132 174.287C51.7478 174.045 51.9385 173.839 52.1693 173.686L251.347 51.692C251.496 51.6181 251.659 51.5796 251.826 51.5796C251.992 51.5796 252.156 51.6181 252.304 51.692L451.6 173.686C451.826 173.851 452.01 174.068 452.136 174.319C452.261 174.57 452.325 174.848 452.321 175.128V415.836C452.326 416.085 452.276 416.332 452.174 416.558C452.072 416.785 451.92 416.987 451.731 417.148L252.265 536.059C251.925 536.177 251.555 536.177 251.216 536.059L200.28 505.81C198.768 504.821 197.021 504.251 195.217 504.156C193.413 504.062 191.616 504.447 190.009 505.272L189.563 505.534C175.501 513.864 171.723 516.028 158.684 520.777C156.559 521.551 151.561 523.4 151.128 528.346C150.696 533.291 155.444 536.807 159.668 539.26L227.748 581.065C235.002 585.41 243.298 587.709 251.753 587.716H252.514C260.758 587.587 268.824 585.293 275.903 581.065L479.789 458.901C487.134 454.375 493.192 448.037 497.382 440.496C501.572 432.955 503.753 424.463 503.716 415.836V171.626C503.757 163.011 501.577 154.53 497.386 147.003C493.195 139.476 487.135 133.156 479.789 128.653Z" fill="#539E43"/>
<path d="M319.913 375.237C270.997 375.237 260.569 361.569 257.473 339.505C257.124 336.878 255.844 334.464 253.865 332.701C251.886 330.939 249.34 329.946 246.69 329.903H220.718C217.79 329.965 215.007 331.184 212.976 333.293C210.946 335.403 209.833 338.231 209.882 341.158C209.882 360.283 216.599 422.71 319.965 422.71C351.946 422.71 378.548 415.233 396.874 401.079C415.199 386.925 425.011 366.331 425.011 341.788C425.011 292.531 392.873 279.046 329.58 270.231C265.239 261.285 265.239 256.733 265.239 246.764C265.239 239.589 265.239 222.785 311.754 222.785C344.849 222.785 362.571 226.969 368.238 249.02C368.74 251.465 370.061 253.665 371.984 255.256C373.907 256.847 376.315 257.734 378.811 257.77H404.875C406.411 257.754 407.927 257.412 409.32 256.765C410.713 256.118 411.953 255.182 412.956 254.018C414.96 251.678 415.959 248.643 415.737 245.57C412.365 198.937 378.273 175.286 311.793 175.286C251.373 175.286 215.313 202.505 215.313 248.089C215.313 298.067 252.685 312.194 308.828 318.045C374.416 324.827 374.416 334.717 374.416 343.454C374.456 357.07 368.802 375.237 319.913 375.237Z" fill="#539E43"/>
</svg>
