<svg width="534" height="530" viewBox="0 0 534 530" fill="none" xmlns="http://www.w3.org/2000/svg">
<path fill-rule="evenodd" clip-rule="evenodd" d="M266.839 315.861V529.461C200.302 529.421 136.177 504.538 87.0271 459.688C37.8774 414.838 7.24468 353.253 1.1303 286.997C-4.98409 220.741 13.8604 154.589 53.9721 101.502C94.0837 48.4143 152.572 12.2166 217.978 0L266.839 48.861H400.339C435.699 48.8609 469.615 62.8894 494.644 87.8678C519.672 112.846 533.768 146.734 533.839 182.094V422.928C533.768 451.207 522.485 478.303 502.464 498.274C482.443 518.246 455.318 529.461 427.039 529.461V476.061C441.202 476.061 454.784 470.435 464.799 460.421C474.813 450.406 480.439 436.824 480.439 422.661C480.439 408.498 474.813 394.916 464.799 384.902C454.784 374.887 441.202 369.261 427.039 369.261H320.239L266.839 315.861ZM413.689 235.761C424.311 235.761 434.498 231.541 442.009 224.031C449.52 216.52 453.739 206.333 453.739 195.711C453.739 185.089 449.52 174.902 442.009 167.391C434.498 159.881 424.311 155.661 413.689 155.661C403.067 155.661 392.88 159.881 385.37 167.391C377.859 174.902 373.639 185.089 373.639 195.711C373.639 206.333 377.859 216.52 385.37 224.031C392.88 231.541 403.067 235.761 413.689 235.761Z" fill="#7A86B8"/>
</svg>
