<svg width="507" height="512" viewBox="0 0 507 512" fill="none" xmlns="http://www.w3.org/2000/svg">
<path d="M250.189 0.00418518C229.307 0.101185 209.366 1.88218 191.82 4.98719C140.131 14.1192 130.746 33.2322 130.746 68.4812V115.034H252.893V130.551H84.9046C49.4056 130.551 18.3206 151.888 8.59863 192.479C-2.61637 239.005 -3.11337 268.039 8.59863 316.62C17.2816 352.781 38.0166 378.547 73.5156 378.547H115.513V322.74C115.513 282.423 150.396 246.861 191.82 246.861H313.825C347.787 246.861 374.898 218.898 374.898 184.791V68.4812C374.898 35.3792 346.972 10.5122 313.825 4.98719C292.842 1.49418 271.07 -0.0928148 250.189 0.00418518ZM184.132 37.4462C196.749 37.4462 207.052 47.9182 207.052 60.7932C207.052 73.6232 196.749 83.9982 184.132 83.9982C171.47 83.9982 161.212 73.6232 161.212 60.7932C161.212 47.9172 171.47 37.4462 184.132 37.4462Z" fill="url(#paint0_linear_16_57)"/>
<path d="M390.131 130.551V184.791C390.131 226.843 354.479 262.236 313.825 262.236H191.82C158.401 262.236 130.746 290.838 130.746 324.306V440.616C130.746 473.718 159.531 493.189 191.82 502.686C230.485 514.055 267.563 516.11 313.825 502.686C344.576 493.783 374.898 475.865 374.898 440.616V394.063H252.893V378.545H435.972C471.471 378.545 484.7 353.784 497.046 316.618C509.799 278.356 509.256 241.561 497.046 192.477C488.273 157.137 471.517 130.549 435.972 130.549H390.131V130.551ZM321.513 425.099C334.175 425.099 344.433 435.474 344.433 448.304C344.433 461.18 334.175 471.652 321.513 471.652C308.896 471.652 298.593 461.18 298.593 448.304C298.592 435.474 308.895 425.099 321.513 425.099Z" fill="url(#paint1_linear_16_57)"/>
<defs>
<linearGradient id="paint0_linear_16_57" x1="-11.9714" y1="14.5606" x2="269.75" y2="254.81" gradientUnits="userSpaceOnUse">
<stop stop-color="#5A9FD4"/>
<stop offset="1" stop-color="#306998"/>
</linearGradient>
<linearGradient id="paint1_linear_16_57" x1="375.749" y1="404.152" x2="274.72" y2="262.473" gradientUnits="userSpaceOnUse">
<stop stop-color="#FFD43B"/>
<stop offset="1" stop-color="#FFE873"/>
</linearGradient>
</defs>
</svg>
