<svg width="562" height="500" viewBox="0 0 562 500" fill="none" xmlns="http://www.w3.org/2000/svg">
<path d="M281 299.587C308.725 299.587 331.2 277.112 331.2 249.388C331.2 221.663 308.725 199.188 281 199.188C253.275 199.188 230.8 221.663 230.8 249.388C230.8 277.112 253.275 299.587 281 299.587Z" fill="#00D8FF"/>
<path d="M281 364.388C210.5 364.388 148.9 356.088 102.8 340.288C72.9 330.088 47.5 316.488 29.4 300.988C10.2 284.588 0 266.688 0 249.388C0 216.188 36.4 183.688 97.5 162.488C147.5 145.088 212.7 135.388 280.9 135.388C347.9 135.388 412.2 144.788 461.9 161.988C491 171.988 515.5 184.988 532.9 199.388C551.8 215.188 561.8 232.488 561.8 249.388C561.8 283.888 521.1 318.788 455.5 340.488C409.1 355.888 347.1 364.388 281 364.388ZM281 159.388C216.3 159.388 152.3 168.788 105.5 185.088C49.3 204.688 24.1 231.488 24.1 249.388C24.1 267.988 51.2 297.288 110.6 317.588C154.2 332.488 213.2 340.388 281 340.388C344.6 340.388 403.9 332.388 448 317.688C509.7 297.188 537.9 267.888 537.9 249.388C537.9 239.888 530.7 228.688 517.6 217.788C502.5 205.188 480.5 193.688 454.2 184.588C406.9 168.388 345.4 159.388 281 159.388Z" fill="#00D8FF"/>
<path d="M167.1 499.588C156.9 499.588 147.9 497.388 140.3 492.988C111.6 476.388 101.6 428.588 113.7 365.088C123.6 312.988 147.8 251.788 181.9 192.688C215.4 134.688 255.6 83.6876 295.3 49.1876C318.5 28.9876 342 14.1876 363.2 6.38755C386.3 -2.11245 406.3 -2.11244 420.9 6.28756C450.8 23.4876 460.7 76.2876 446.7 143.888C436.8 191.888 413.2 249.788 380.2 307.088C345 368.088 307 417.288 270.3 449.388C246.5 470.188 222 485.388 199.6 493.288C187.9 497.488 176.9 499.588 167.1 499.588ZM192.2 198.688L202.6 204.688C170.3 260.688 146.4 320.788 137.2 369.588C126.1 428.088 136.8 463.288 152.2 472.188C156 474.388 161 475.588 167.1 475.588C187 475.588 218.3 462.988 254.5 431.388C289.2 401.088 325.5 353.888 359.4 295.188C391.2 240.088 413.8 184.688 423.2 139.188C436.3 75.4875 425 36.4876 408.9 27.1876C400.7 22.4876 387.4 23.0876 371.4 28.9876C352.9 35.7876 332 49.0876 311 67.3876C273.3 100.188 234.8 148.988 202.6 204.788L192.2 198.688Z" fill="#00D8FF"/>
<path d="M394.9 499.888C367.7 499.888 333.2 483.488 297.2 452.488C257 417.888 216.1 366.388 181.9 307.288C148.3 249.288 124.3 188.988 114.2 137.288C108.3 107.088 107.2 79.3876 111 57.0876C115.2 32.7876 125.1 15.4876 139.8 6.98756C169.6 -10.3124 220.3 7.48756 271.9 53.3876C308.5 85.8876 346.9 135.288 380 192.488C415.3 253.488 439 310.988 448.4 358.788C454.5 389.788 455.5 418.588 451.2 441.988C446.6 466.888 436.2 484.588 421.2 493.288C413.7 497.688 404.8 499.888 394.9 499.888ZM202.7 295.288C235.1 351.288 275.3 401.988 312.9 434.288C358 473.088 393.8 481.488 409.3 472.488C425.4 463.188 437.2 425.088 425 363.488C416 318.288 393.3 263.288 359.3 204.588C327.4 149.488 290.7 102.188 256 71.3876C207.4 28.1876 168 18.4876 151.9 27.7876C143.7 32.4876 137.6 44.3876 134.7 61.1876C131.4 80.5876 132.4 105.388 137.8 132.688C147.4 181.788 170.4 239.488 202.7 295.288Z" fill="#00D8FF"/>
</svg>
