<svg width="444" height="448" viewBox="0 0 444 448" fill="none" xmlns="http://www.w3.org/2000/svg">
<path d="M0 290.4V375.44C0 393.76 67.04 419.28 176.16 419.28C181.36 419.28 186.48 419.2 191.52 419.04V324.48C186.4 324.64 181.28 324.72 176.16 324.72C104.08 324.72 31.28 313.04 0 290.4ZM28.8 363.6C26.3633 363.6 23.9814 362.878 21.9554 361.524C19.9294 360.17 18.3503 358.246 17.4178 355.995C16.4853 353.744 16.2414 351.266 16.7167 348.877C17.1921 346.487 18.3655 344.292 20.0884 342.569C21.8114 340.846 24.0066 339.672 26.3965 339.197C28.7863 338.721 31.2635 338.965 33.5147 339.898C35.7658 340.83 37.69 342.409 39.0437 344.435C40.3974 346.461 41.12 348.843 41.12 351.28C41.12 352.898 40.8013 354.5 40.1822 355.995C39.5631 357.489 38.6556 358.848 37.5116 359.992C36.3675 361.136 35.0094 362.043 33.5147 362.662C32.0199 363.281 30.4179 363.6 28.8 363.6ZM65.68 374C63.2433 374 60.8614 373.278 58.8354 371.924C56.8094 370.57 55.2303 368.646 54.2978 366.395C53.3653 364.144 53.1214 361.666 53.5967 359.277C54.0721 356.887 55.2455 354.692 56.9684 352.969C58.6914 351.246 60.8866 350.072 63.2765 349.597C65.6663 349.121 68.1435 349.365 70.3947 350.298C72.6458 351.23 74.57 352.809 75.9237 354.836C77.2774 356.862 78 359.243 78 361.68C77.9853 364.943 76.6825 368.068 74.3753 370.375C72.068 372.683 68.9429 373.985 65.68 374ZM102.48 380C100.043 380 97.6614 379.278 95.6354 377.924C93.6094 376.57 92.0303 374.646 91.0978 372.395C90.1653 370.144 89.9214 367.666 90.3967 365.277C90.8721 362.887 92.0454 360.692 93.7684 358.969C95.4914 357.246 97.6866 356.072 100.076 355.597C102.466 355.121 104.943 355.365 107.195 356.298C109.446 357.23 111.37 358.809 112.724 360.836C114.077 362.862 114.8 365.243 114.8 367.68C114.8 370.948 113.502 374.081 111.192 376.392C108.881 378.702 105.747 380 102.48 380ZM0 179.84V264.88C0 283.2 67.04 308.72 176.16 308.72C181.36 308.72 186.48 308.64 191.52 308.48V214C186.4 214.16 181.28 214.24 176.16 214.24C104.08 214.24 31.28 202.48 0 179.84ZM28.8 253.12C26.3633 253.12 23.9814 252.398 21.9554 251.044C19.9294 249.69 18.3503 247.766 17.4178 245.515C16.4853 243.264 16.2414 240.786 16.7167 238.397C17.1921 236.007 18.3655 233.812 20.0884 232.089C21.8114 230.366 24.0066 229.192 26.3965 228.717C28.7863 228.241 31.2635 228.485 33.5147 229.418C35.7658 230.35 37.69 231.929 39.0437 233.955C40.3974 235.982 41.12 238.363 41.12 240.8C41.12 244.068 39.822 247.201 37.5116 249.512C35.2011 251.822 32.0675 253.12 28.8 253.12ZM65.68 263.44C63.2433 263.44 60.8614 262.718 58.8354 261.364C56.8094 260.01 55.2303 258.086 54.2978 255.835C53.3653 253.584 53.1214 251.106 53.5967 248.717C54.0721 246.327 55.2455 244.132 56.9684 242.409C58.6914 240.686 60.8866 239.512 63.2765 239.037C65.6663 238.561 68.1435 238.805 70.3947 239.738C72.6458 240.67 74.57 242.249 75.9237 244.275C77.2774 246.301 78 248.683 78 251.12C78 254.388 76.702 257.521 74.3916 259.832C72.0811 262.142 68.9475 263.44 65.68 263.44ZM102.48 269.52C100.043 269.52 97.6614 268.798 95.6354 267.444C93.6094 266.09 92.0303 264.166 91.0978 261.915C90.1653 259.664 89.9214 257.186 90.3967 254.797C90.8721 252.407 92.0454 250.212 93.7684 248.489C95.4914 246.766 97.6866 245.592 100.076 245.117C102.466 244.641 104.943 244.885 107.195 245.818C109.446 246.75 111.37 248.329 112.724 250.355C114.077 252.381 114.8 254.763 114.8 257.2C114.8 260.468 113.502 263.601 111.192 265.912C108.881 268.222 105.747 269.52 102.48 269.52ZM350.32 160C351.563 158.392 352.263 156.431 352.32 154.4V69.3601C321.04 92.0001 248.24 103.76 176.16 103.76C104.08 103.76 31.28 92.0001 0 69.3601V154.4C0 172.72 67.04 198.24 176.16 198.24C181.36 198.24 186.48 198.16 191.52 198V184C191.539 177.641 194.074 171.547 198.57 167.051C203.067 162.554 209.161 160.019 215.52 160H350.32ZM28.8 142.56C26.3633 142.56 23.9814 141.838 21.9554 140.484C19.9294 139.13 18.3503 137.206 17.4178 134.955C16.4853 132.704 16.2414 130.226 16.7167 127.837C17.1921 125.447 18.3655 123.252 20.0884 121.529C21.8114 119.806 24.0066 118.632 26.3965 118.157C28.7863 117.681 31.2635 117.925 33.5147 118.858C35.7658 119.79 37.69 121.369 39.0437 123.395C40.3974 125.421 41.12 127.803 41.12 130.24C41.12 133.508 39.822 136.641 37.5116 138.952C35.2011 141.262 32.0675 142.56 28.8 142.56ZM65.68 152.96C63.2433 152.96 60.8614 152.238 58.8354 150.884C56.8094 149.53 55.2303 147.606 54.2978 145.355C53.3653 143.104 53.1214 140.626 53.5967 138.237C54.0721 135.847 55.2455 133.652 56.9684 131.929C58.6914 130.206 60.8866 129.032 63.2765 128.557C65.6663 128.081 68.1435 128.325 70.3947 129.258C72.6458 130.19 74.57 131.769 75.9237 133.795C77.2774 135.822 78 138.203 78 140.64C78 143.908 76.702 147.041 74.3916 149.352C72.0811 151.662 68.9475 152.96 65.68 152.96ZM102.48 158.96C100.043 158.96 97.6614 158.238 95.6354 156.884C93.6094 155.53 92.0303 153.606 91.0978 151.355C90.1653 149.104 89.9214 146.626 90.3967 144.237C90.8721 141.847 92.0454 139.652 93.7684 137.929C95.4914 136.206 97.6866 135.032 100.076 134.557C102.466 134.081 104.943 134.325 107.195 135.258C109.446 136.19 111.37 137.769 112.724 139.795C114.077 141.822 114.8 144.203 114.8 146.64C114.8 149.908 113.502 153.041 111.192 155.352C108.881 157.662 105.747 158.96 102.48 158.96Z" fill="#0071BC"/>
<path d="M176.16 87.76C285.36 87.76 352.32 62.24 352.32 43.92C352.32 25.52 285.36 0 176.16 0C67.04 0 0 25.52 0 43.92C0 62.24 67.04 87.76 176.16 87.76ZM207.52 248H317.52V304H207.52V248ZM207.52 320H317.52V376H207.52V320ZM207.52 440C207.52 442.122 208.363 444.157 209.863 445.657C211.363 447.157 213.398 448 215.52 448H317.52V392H207.52V440ZM333.52 448H435.52C437.642 448 439.677 447.157 441.177 445.657C442.677 444.157 443.52 442.122 443.52 440V392H333.52V448ZM333.52 320H443.52V376H333.52V320ZM333.52 248H443.52V304H333.52V248ZM435.52 176H215.52C213.398 176 211.363 176.843 209.863 178.343C208.363 179.843 207.52 181.878 207.52 184V232H443.52V184C443.52 181.878 442.677 179.843 441.177 178.343C439.677 176.843 437.642 176 435.52 176Z" fill="#0071BC"/>
</svg>
