<?xml version="1.0" encoding="iso-8859-1"?>
<!-- Generator: Adobe Illustrator 19.0.0, SVG Export Plug-In . SVG Version: 6.00 Build 0)  -->
<svg version="1.1" id="Capa_1" xmlns="http://www.w3.org/2000/svg" xmlns:xlink="http://www.w3.org/1999/xlink" x="0px" y="0px"
	 viewBox="0 0 512.01 512.01" style="enable-background:new 0 0 512.01 512.01;" xml:space="preserve">
<g transform="translate(0 -1)">
	<g transform="translate(1 2)">
		<path style="fill:#A4C2F7;" d="M457.064,9.194c-4.052-2.8-9.593-1.895-12.544,2.048l-82.859,114.005
			c-3.519-3.328-9.025-3.328-12.544,0l-51.2,49.323c-12.338,11.719-31.694,11.719-44.032,0c-12.382-11.69-31.735-11.69-44.117,0
			l-50.944,49.067L17.938,359.232c-6.659,6.302-10.431,15.067-10.431,24.235s3.772,17.933,10.431,24.235l88.065,84.736
			c14.108,13.397,36.238,13.397,50.346,0L332.478,322.88l15.7-15.104c5.845-5.484,9.152-13.148,9.131-21.163
			c0.006-8.037-3.297-15.721-9.131-21.248c-5.803-5.527-9.088-13.191-9.088-21.205s3.284-15.678,9.088-21.205l51.2-49.237
			c1.675-1.57,2.625-3.763,2.625-6.059c0-2.296-0.95-4.489-2.625-6.059l94.379-54.528C493.757,107.072,529.171,61.589,457.064,9.194
			z"/>
		<path style="fill:#F5F5F5;" d="M348.178,222.954c-5.803,5.527-9.088,13.191-9.088,21.205s3.284,15.678,9.088,21.205
			c5.835,5.527,9.137,13.212,9.131,21.248c0.021,8.015-3.286,15.679-9.131,21.163l-15.7,15.104
			c-9.774-7.67-20.467-14.092-31.83-19.115c-24.717-9.344-49.997-17.124-75.691-23.296c-18.773-5.547-37.887-13.141-49.835-28.928
			c-6.342-8.739-11.802-18.087-16.299-27.904l50.944-49.067c12.382-11.69,31.735-11.69,44.117,0
			c12.338,11.719,31.694,11.719,44.032,0l51.2-49.323c3.519-3.328,9.025-3.328,12.544,0l12.544,12.117l25.173,24.235
			c1.675,1.57,2.625,3.763,2.625,6.059s-0.95,4.489-2.625,6.059L348.178,222.954z"/>
		<path style="fill:#FFFFFF;" d="M342.263,216.804l39.905-38.376l9.976-9.594l1.223-1.176l-0.004-0.001l0.004,0.001l-18.901-18.197
			l-13.547-13.066l-3.39-3.275l-1.696-1.638c-0.144-0.105-0.079-0.082-0.148-0.109c-0.178-0.099-0.393-0.109-0.579-0.027
			l-25.619,24.659l-27.62,26.483c-12.617,10.486-30.297,12.373-44.843,4.786c-3.436-1.835-6.6-4.138-9.401-6.845
			c-1.68-1.541-3.581-2.822-5.641-3.799c-4.206-1.991-8.906-2.695-13.511-2.026c-4.578,0.614-8.864,2.6-12.292,5.697l-13.421,12.866
			l-27.144,26.144l-6.394,6.158l3.054,5.776c1.446,2.615,2.946,5.182,4.529,7.671c1.574,2.483,3.25,4.938,4.953,7.242
			c1.613,2.128,3.393,4.123,5.324,5.967c4.028,3.804,8.549,7.049,13.442,9.648c10.645,5.382,21.865,9.541,33.447,12.395
			c24.93,5.782,49.367,13.513,73.086,23.122c6.045,2.806,11.896,6.013,17.512,9.6l4.15,2.728l2.039,1.407l1.013,0.711l-0.012-0.009
			l10.86-10.462c3.209-3.129,5.296-7.228,5.939-11.664c0.638-4.441-0.172-8.97-2.311-12.914c-1.125-2.013-2.55-3.843-4.227-5.426
			c-2.873-2.848-5.296-6.117-7.186-9.694c-7.657-14.912-4.654-33.079,7.396-44.733l11.895,12.238
			c-4.435,4.262-6.784,10.251-6.429,16.393c0.179,3.013,1.018,5.95,2.458,8.603c0.755,1.316,1.629,2.561,2.61,3.719l1.753,1.852
			c8.97,8.837,12.97,21.549,10.676,33.93c-1.01,5.444-3.222,10.593-6.477,15.073c-1.568,2.132-3.334,4.111-5.275,5.909l-4.591,4.417
			l-13.1,12.603l-2.3,2.213c-0.362,0.698-0.824-0.221-1.24-0.379l-1.276-0.973l-5.121-3.902l-4.526-3.3l-2.491-1.718
			c-6.62-4.506-13.632-8.406-20.951-11.654c-15.321-6.364-31.105-11.549-47.216-15.511c-17-3.985-33.697-9.162-49.97-15.492
			c-8.67-3.705-16.709-8.74-23.828-14.922c-3.598-3.27-6.846-6.905-9.691-10.847c-2.668-3.697-5.12-7.494-7.397-11.361l-3.29-5.84
			l-3.61-7.023l-2.766-5.724l-1.372-2.869c-0.506-0.528,0.278-0.825,0.558-1.212l1.132-1.11l8.069-7.815l18.391-17.712
			l18.389-17.713l9.39-8.978c4.018-3.651,8.74-6.443,13.876-8.204c10.306-3.535,21.594-2.83,31.38,1.959
			c2.417,1.223,4.717,2.665,6.871,4.309l4.831,4.2c2.439,1.906,5.244,3.287,8.242,4.059c6.125,1.605,12.637,0.702,18.094-2.508
			c1.319-0.79,2.552-1.715,3.678-2.762l4.471-4.289l9.192-8.855l36.767-35.419l1.159-1.116c0.759-0.724,1.579-1.382,2.45-1.967
			c1.745-1.154,3.684-1.986,5.724-2.454c4.031-0.926,8.258-0.422,11.959,1.424c1.713,0.883,3.28,2.024,4.647,3.383l2.295,2.216
			l4.589,4.432l11.591,11.178l2.089,2.011l8.355,8.045l8.903,8.606c5.782,6.012,6.297,15.35,1.21,21.961
			c-0.559,0.719-1.169,1.397-1.825,2.028l-1.087,1.046l-2.174,2.091l-4.348,4.182l-8.697,8.364l-34.786,33.457L342.263,216.804z"/>
		<g>
			<path style="fill:#F5F5F5;" d="M378.932,193.38c-3.311-3.352-8.696-3.437-12.111-0.192l-24.557,23.616l11.83,12.301
				l24.648-23.706c1.627-1.564,2.562-3.713,2.598-5.97C381.375,197.172,380.509,194.995,378.932,193.38z"/>
			<path style="fill:#F5F5F5;" d="M354.126,229.074l-11.895-12.239c-12.049,11.654-15.053,29.821-7.396,44.733
				c1.89,3.577,4.313,6.846,7.186,9.694c1.677,1.583,3.103,3.413,4.227,5.426c2.139,3.944,2.95,8.473,2.311,12.914
				c-0.642,4.436-2.729,8.535-5.939,11.664l-10.86,10.462l0.012,0.009l-1.013-0.711l-2.039-1.407l-4.15-2.728
				c-5.617-3.587-11.467-6.795-17.512-9.601c-23.719-9.609-48.157-17.34-73.086-23.122c-11.582-2.854-22.802-7.013-33.447-12.395
				c-4.893-2.598-9.414-5.843-13.442-9.648c-1.931-1.844-3.711-3.839-5.324-5.967c-1.703-2.303-3.379-4.759-4.953-7.242
				c-1.583-2.49-3.083-5.057-4.529-7.671l-3.054-5.776l6.394-6.158l27.144-26.144l13.421-12.866
				c3.428-3.097,7.713-5.083,12.292-5.697c4.605-0.669,9.305,0.036,13.511,2.026c2.059,0.977,3.961,2.258,5.641,3.799
				c2.801,2.706,5.965,5.01,9.401,6.844c14.546,7.587,32.225,5.7,44.843-4.786l27.62-26.483l25.619-24.659
				c0.187-0.082,0.401-0.072,0.579,0.027c0.068,0.027,0.004,0.004,0.148,0.109l1.696,1.638l3.39,3.275l13.547,13.066l6.126,5.898
				c3.418,3.238,8.795,3.157,12.114-0.183c1.58-1.612,2.45-3.79,2.416-6.047c-0.034-2.257-0.97-4.407-2.598-5.971l-6.168-5.939
				l-13.583-13.102l-3.388-3.272l-1.693-1.636c-1.088-1.048-2.304-1.955-3.619-2.698c-6.827-3.883-15.4-2.772-21.011,2.722
				l-1.696,1.634l-3.394,3.268l-6.785,6.537l-13.572,13.075l-26.77,25.713c-7.312,5.983-17.481,7.049-25.875,2.711
				c-2.114-1.13-4.05-2.565-5.746-4.259c-2.95-2.719-6.294-4.976-9.919-6.697c-7.226-3.425-15.3-4.646-23.216-3.509
				c-7.96,1.092-15.406,4.559-21.366,9.947l-13.792,13.211l-27.154,26.153l-7.18,6.916l-6.741,6.545
				c-0.337,0.585-1.606,1.005-1.179,1.727l1.014,2.118l2.024,4.23l3.294,6.6l2.327,4.342c1.593,2.883,3.265,5.743,5.051,8.555
				c1.792,2.822,3.655,5.561,5.687,8.309c2.177,2.885,4.584,5.589,7.197,8.087c5.111,4.844,10.849,8.981,17.059,12.299
				c11.778,6.015,24.204,10.664,37.037,13.858c24.046,5.563,47.625,12.978,70.527,22.18c5.355,2.487,10.538,5.33,15.514,8.509
				l3.723,2.449l1.84,1.268l2.833,2.046l7.574,5.716c0.622,0.377,1.271,1.185,1.87,1.208l1.698-1.633l3.396-3.266l16.287-15.686
				c5.841-5.744,9.642-13.243,10.821-21.35c1.166-8.101-0.319-16.362-4.233-23.55c-1.936-3.486-4.382-6.663-7.257-9.425
				c-1.586-1.589-2.93-3.402-3.989-5.382C345.764,245.466,347.453,235.458,354.126,229.074z"/>
			<path style="fill:#F5F5F5;" d="M391.377,169.573c-1.597,1.579-2.534,3.707-2.619,5.952l0.161,1.62
				c0.102,0.564,0.278,1.111,0.525,1.628c0.164,0.515,0.405,1.003,0.715,1.446c0.327,0.468,0.686,0.913,1.074,1.331
				c1.619,1.59,3.774,2.514,6.042,2.592c1.13-0.015,2.248-0.245,3.293-0.676c1.562-0.628,2.91-1.693,3.88-3.068l0.719-1.142
				c0.433-0.615,0.795-1.277,1.079-1.973c0.52-1.212,0.722-2.536,0.59-3.847c-0.16-1.337-0.811-2.566-1.826-3.45
				c-0.868-0.74-1.941-1.197-3.076-1.311c-2.229-0.221-4.561,0.266-6.278-0.035c-0.63-0.048-1.242-0.231-1.795-0.538
				C393.461,167.897,392.03,168.943,391.377,169.573z"/>
		</g>
		<path style="fill:#E3E7F2;" d="M300.648,303.765c-24.717-9.344-49.997-17.124-75.691-23.296
			c-18.773-5.547-37.887-13.141-49.835-28.928c-6.342-8.739-11.802-18.087-16.299-27.904L17.939,359.231
			c-6.659,6.302-10.431,15.067-10.431,24.235s3.772,17.933,10.431,24.235l88.065,84.736c14.108,13.397,36.238,13.397,50.346,0
			L332.478,322.88C322.704,315.21,312.012,308.788,300.648,303.765z M182.291,405.653c-19.456,6.229-49.067,2.645-71.679-2.389
			c-5.206-21.76-8.96-50.261-2.475-68.949c8.021-25.6,25.259-42.24,43.178-41.643c10.355,0.565,19.812,6.057,25.436,14.77
			s6.731,19.593,2.98,29.262c26.625-7.68,45.141,10.155,45.74,27.392C226.152,381.333,208.83,397.973,182.291,405.653
			L182.291,405.653z"/>
		
			<linearGradient id="SVGID_1_" gradientUnits="userSpaceOnUse" x1="-49.6261" y1="650.3389" x2="-48.6261" y2="650.3389" gradientTransform="matrix(120.7926 0 0 -116.3061 6099.1348 75989.1953)">
			<stop  offset="0" style="stop-color:#D4E1F4"/>
			<stop  offset="0.1717" style="stop-color:#D4E1F4"/>
			<stop  offset="0.2" style="stop-color:#D4E1F4"/>
			<stop  offset="0.2001" style="stop-color:#DAE4F4"/>
			<stop  offset="0.2007" style="stop-color:#EBEBF4"/>
			<stop  offset="0.2014" style="stop-color:#F6F1F4"/>
			<stop  offset="0.2023" style="stop-color:#FDF4F4"/>
			<stop  offset="0.205" style="stop-color:#FFF5F4"/>
			<stop  offset="0.2522" style="stop-color:#FFF5F4"/>
			<stop  offset="0.26" style="stop-color:#FFF5F4"/>
			<stop  offset="0.26" style="stop-color:#D4E1F4"/>
			<stop  offset="0.3974" style="stop-color:#D4E1F4"/>
			<stop  offset="0.42" style="stop-color:#D4E1F4"/>
			<stop  offset="0.4201" style="stop-color:#DAE4F4"/>
			<stop  offset="0.4207" style="stop-color:#EBEBF4"/>
			<stop  offset="0.4214" style="stop-color:#F6F1F4"/>
			<stop  offset="0.4223" style="stop-color:#FDF4F4"/>
			<stop  offset="0.425" style="stop-color:#FFF5F4"/>
			<stop  offset="0.4894" style="stop-color:#FFF5F4"/>
			<stop  offset="0.5" style="stop-color:#FFF5F4"/>
			<stop  offset="0.5" style="stop-color:#F9F2F4"/>
			<stop  offset="0.5001" style="stop-color:#E8EBF4"/>
			<stop  offset="0.5003" style="stop-color:#DDE5F4"/>
			<stop  offset="0.5005" style="stop-color:#D6E2F4"/>
			<stop  offset="0.501" style="stop-color:#D4E1F4"/>
			<stop  offset="0.7062" style="stop-color:#D4E1F4"/>
			<stop  offset="0.74" style="stop-color:#D4E1F4"/>
			<stop  offset="0.741" style="stop-color:#FFF5F4"/>
			<stop  offset="0.8346" style="stop-color:#FFF5F4"/>
			<stop  offset="0.85" style="stop-color:#FFF5F4"/>
			<stop  offset="0.851" style="stop-color:#D4E1F4"/>
		</linearGradient>
		<path style="fill:url(#SVGID_1_);" d="M225.443,364.09c0.683,17.237-16.64,33.877-43.179,41.557
			c-19.456,6.229-49.067,2.645-71.679-2.389c-5.206-21.76-8.96-50.261-2.475-68.949c8.021-25.6,25.259-42.24,43.178-41.643
			c10.355,0.565,19.812,6.057,25.436,14.77c5.623,8.713,6.731,19.593,2.98,29.262C206.329,329.018,224.846,346.853,225.443,364.09z"
			/>
		<path style="fill:#E3E7F2;" d="M493.731,107.066l-94.379,54.528l-25.173-24.235L449.7,64.655
			C468.387,106.981,493.56,107.066,493.731,107.066z"/>
		<g>
			<path style="fill:#7FACFA;" d="M348.146,307.784l-15.689,15.085c-6.891-5.368-14.217-10.151-21.903-14.301l3.861-3.741
				l15.688-15.086c5.867-5.474,9.171-13.155,9.111-21.179c0.045-8.026-3.23-15.713-9.05-21.239
				c-5.816-5.518-9.115-13.179-9.127-21.197c-0.011-8.017,3.266-15.688,9.066-21.223l51.228-49.178
				c2.752-2.558,3.422-6.654,1.63-9.956l16.412,15.809c1.676,1.584,2.625,3.788,2.625,6.094s-0.949,4.51-2.625,6.094l-51.228,49.178
				c-5.801,5.534-9.078,13.205-9.066,21.223s3.31,15.679,9.127,21.197c5.824,5.553,9.117,13.252,9.111,21.299
				C357.314,294.669,353.993,302.315,348.146,307.784z"/>
			<path style="fill:#7FACFA;" d="M332.452,322.874L156.408,492.431c-14.119,13.422-36.268,13.459-50.432,0.085l-87.979-84.821
				c-1.337-1.259-2.564-2.629-3.669-4.096l73.898,71.083c14.108,13.397,36.238,13.397,50.347,0l82.945-79.872l89.429-86.016
				C318.486,312.896,325.678,317.605,332.452,322.874z"/>
		</g>
		<g>
			<path style="fill:#FFFFFF;" d="M210.803,173.852l-15.424,15.356c5.216,7.006,9.839,14.435,13.82,22.21l3.824-3.779l15.424-15.355
				c5.6-5.746,13.352-8.882,21.373-8.647c8.025,0.13,15.638,3.572,21.037,9.511c5.39,5.935,12.978,9.4,20.993,9.587
				c8.015,0.186,15.756-2.923,21.415-8.601l50.283-50.144c2.617-2.695,6.727-3.276,9.989-1.412l-15.447-16.753
				c-1.547-1.71-3.73-2.707-6.036-2.757c-2.305-0.05-4.53,0.851-6.15,2.491l-50.283,50.143c-5.659,5.679-13.4,8.788-21.415,8.601
				c-8.015-0.186-15.603-3.651-20.992-9.587c-5.425-5.944-13.05-9.404-21.096-9.573
				C224.114,164.973,216.397,168.126,210.803,173.852z"/>
			<path style="fill:#FFFFFF;" d="M38.276,430.071c-13.087-14.397-12.604-36.522,1.098-50.335l81.662-81.183l87.946-87.532
				c-3.937-7.626-8.488-14.919-13.608-21.806L22.018,361.519c-13.726,13.823-14.246,35.966-1.185,50.418L38.276,430.071z"/>
		</g>
	</g>
	<g>
		<path style="fill:#FFFFFF;" d="M356.721,133.396c-0.036-0.149-0.708-0.151-0.745,0l-9.982,9.61l-19.98,19.234l-19.98,19.234
			c-4.031,4.09-8.847,7.324-14.158,9.508c-5.459,2.149-11.316,3.099-17.175,2.787c-7.08-0.351-13.944-2.56-19.9-6.405
			c-1.481-0.973-2.895-2.043-4.233-3.205l-3.002-2.616c-1.556-1.291-3.285-2.357-5.136-3.168
			c-8.594-3.858-18.663-2.208-25.576,4.191l-2.96,2.831l-6.008,5.784l-12.017,11.568l-24.034,23.137l-96.136,92.547l-48.069,46.274
			l-2.941,2.852c-0.677,0.802-1.507,1.485-2.101,2.346c-6.743,8.301-7.368,20.001-1.549,28.974c1.159,1.779,2.516,3.42,4.045,4.894
			l6.008,5.784l48.069,46.274l24.033,23.137l6.008,5.784c2.005,1.948,4.125,3.986,5.542,5.159c3.332,2.651,7.233,4.493,11.397,5.383
			c8.457,1.875,17.306-0.286,23.947-5.848c1.406-1.113,3.79-3.556,5.681-5.335l6.008-5.784l12.018-11.569l48.068-46.274
			l96.135-92.547l24.034-23.137c6.429-5.237,9.151-13.78,6.936-21.771c-0.527-1.899-1.334-3.709-2.394-5.37
			c-0.525-0.842-1.102-1.651-1.727-2.422l-2.418-2.575c-10.395-10.485-13.684-26.087-8.404-39.875
			c1.943-5.018,4.906-9.578,8.702-13.392l3.096-3.025l47.978-46.187c0.705-0.684,0.558-0.552,0.558-0.552l0.005,0.005l0.001,0.002
			v0.001c-0.093-0.076,0.184,0.189-0.188-0.184l-1.498-1.442l-11.987-11.539L356.721,133.396l11.836-12.295l24.093,23.197
			l12.047,11.599l1.505,1.45c0.935,0.906,1.774,1.906,2.504,2.984c3.962,5.956,3.717,13.768-0.611,19.465
			c-0.686,0.895-1.446,1.731-2.272,2.499l-48.155,46.363l-2.869,2.802c-0.71,0.705-1.366,1.463-1.96,2.268
			c-1.214,1.561-2.182,3.297-2.871,5.15c-1.41,3.69-1.729,7.707-0.919,11.573c0.843,3.89,2.781,7.458,5.584,10.283
			c5.087,4.837,8.8,10.936,10.763,17.675c1.95,6.974,1.861,14.361-0.257,21.286c-1.097,3.423-2.651,6.683-4.62,9.691
			c-1.922,2.811-4.154,5.397-6.652,7.711l-24.034,23.137l-96.135,92.548l-48.069,46.274l-12.017,11.568l-6.008,5.784
			c-2.166,2.021-3.61,3.629-6.491,6.065c-16.43,13.761-40.271,14.073-57.055,0.748c-2.855-2.392-4.697-4.259-6.693-6.172
			l-6.009-5.784l-24.033-23.137l-48.068-46.274l-6.01-5.784c-2.476-2.389-4.673-5.051-6.549-7.935
			c-9.779-15.155-8.738-34.872,2.582-48.913c1.087-1.345,2.244-2.631,3.468-3.853l3.046-2.954l48.068-46.273l96.136-92.548
			l24.034-23.137l12.016-11.569l6.008-5.784l3.068-2.933c11.93-11.147,29.381-14.052,44.278-7.371
			c3.243,1.434,6.273,3.306,9.005,5.565l3.29,2.858c0.759,0.664,1.561,1.276,2.402,1.832c3.441,2.211,7.404,3.478,11.49,3.673
			c3.404,0.184,6.809-0.362,9.984-1.603c3.261-1.353,6.2-3.378,8.626-5.943l19.979-19.234l19.98-19.234l9.997-9.623
			c6.84-6.494,17.57-6.488,24.403,0.013L356.721,133.396z"/>
		<g>
			<path style="fill:#428DFF;" d="M329.317,147.215c3.274,3.381,8.665,3.484,12.066,0.229l12.296-11.836l1.536-1.479l0.762-0.733
				l0.036-0.022c0.064-0.041,0.135-0.07,0.209-0.085c0.174-0.032,0.354,0.006,0.499,0.107l11.836-12.295
				c-6.249-5.965-15.893-6.541-22.807-1.363c-0.563,0.41-1.076,0.886-1.596,1.35l-0.776,0.746l-1.537,1.48l-12.296,11.836
				C326.165,138.423,326.062,143.814,329.317,147.215z"/>
			<path style="fill:#428DFF;" d="M368.558,121.101l-11.837,12.295l23.973,23.079l11.987,11.539l1.498,1.442
				c0.372,0.373,0.095,0.108,0.188,0.184v-0.001l-0.001-0.002l-0.005-0.005c0,0,0.147-0.132-0.558,0.552l-47.978,46.187
				l-3.096,3.025c-3.796,3.814-6.759,8.374-8.702,13.392c-5.279,13.788-1.991,29.39,8.404,39.875l2.418,2.575
				c0.625,0.771,1.202,1.58,1.727,2.422c1.06,1.661,1.867,3.471,2.394,5.37c2.215,7.99-0.508,16.534-6.936,21.771l-24.035,23.137
				l-96.135,92.547l-48.068,46.273l-12.018,11.568l-6.008,5.784c-1.892,1.778-4.275,4.221-5.681,5.335
				c-6.641,5.562-15.49,7.723-23.947,5.848c-4.164-0.889-8.065-2.732-11.397-5.383c-1.417-1.173-3.536-3.211-5.542-5.159
				l-6.008-5.784L79.16,455.83l-48.068-46.274l-6.008-5.784c-1.529-1.473-2.886-3.115-4.045-4.894
				c-5.794-8.979-5.17-20.664,1.549-28.974c0.594-0.861,1.424-1.544,2.101-2.346l2.941-2.852l48.069-46.274l96.135-92.547
				l24.034-23.137l12.017-11.568l6.008-5.784l2.96-2.831c6.913-6.4,16.982-8.049,25.576-4.191c1.852,0.811,3.581,1.877,5.136,3.168
				l3.002,2.616c1.338,1.162,2.752,2.233,4.233,3.205c5.956,3.844,12.819,6.053,19.9,6.405c3.592,0.204,7.194-0.081,10.709-0.847
				c2.523-0.297,4.748-1.789,5.981-4.01c1.233-2.221,1.321-4.899,0.239-7.197c-1.855-3.641-5.723-5.805-9.797-5.481
				c-2.049,0.451-4.151,0.617-6.245,0.491c-4.086-0.195-8.048-1.462-11.49-3.673c-0.841-0.556-1.643-1.169-2.402-1.832l-3.29-2.858
				c-2.733-2.259-5.763-4.131-9.005-5.565c-14.897-6.681-32.348-3.776-44.278,7.371l-3.068,2.933l-6.008,5.784l-12.017,11.568
				l-24.034,23.137l-96.135,92.547l-48.068,46.273l-3.046,2.954c-1.223,1.222-2.381,2.508-3.468,3.853
				c-11.344,14.032-12.386,33.765-2.582,48.913c1.876,2.884,4.073,5.546,6.549,7.935l6.009,5.784l48.068,46.274l24.033,23.137
				l6.009,5.784c1.996,1.913,3.838,3.78,6.693,6.172c16.785,13.326,40.625,13.014,57.055-0.748c2.88-2.437,4.325-4.044,6.491-6.065
				l6.008-5.784l12.017-11.568l48.069-46.274l96.135-92.547l24.034-23.137c2.499-2.314,4.73-4.9,6.652-7.711
				c1.969-3.008,3.523-6.267,4.62-9.691c2.118-6.925,2.208-14.312,0.257-21.286c-1.962-6.74-5.676-12.838-10.762-17.675
				c-2.804-2.825-4.741-6.393-5.584-10.283c-0.811-3.866-0.492-7.884,0.919-11.573c0.689-1.853,1.657-3.59,2.871-5.15
				c0.595-0.805,1.25-1.563,1.96-2.268l2.869-2.802l48.155-46.363c0.826-0.768,1.586-1.604,2.272-2.499
				c4.326-5.697,4.571-13.508,0.61-19.465c-0.73-1.078-1.569-2.078-2.504-2.984l-1.505-1.45l-12.047-11.599L368.558,121.101z"/>
			<path style="fill:#428DFF;" d="M316.792,171.117c1.604-1.591,2.55-3.728,2.649-5.985l-0.149-1.632
				c-0.097-0.568-0.269-1.12-0.512-1.642c-0.158-0.519-0.394-1.012-0.7-1.46c-0.321-0.472-0.675-0.922-1.058-1.346
				c-1.59-1.606-3.728-2.552-5.985-2.648c-2.873-0.109-5.602,1.257-7.237,3.622c-1.635,2.365-1.949,5.401-0.832,8.05
				c0.397,1.043,0.994,1.999,1.758,2.812c1.558,1.651,3.715,2.605,5.985,2.648C312.981,173.579,315.173,172.707,316.792,171.117
				L316.792,171.117z"/>
			<path style="fill:#428DFF;" d="M333.435,333.442c-1.89,0.002-3.727-0.629-5.217-1.792c-9.191-7.259-19.266-13.323-29.983-18.046
				c-17.156-6.964-34.811-12.628-52.817-16.942c-7.317-1.95-14.625-3.9-21.867-6.012c-19.142-5.612-40.55-13.8-54.242-32.009
				c-6.694-9.173-12.466-18.985-17.233-29.292c-2.041-4.248-0.252-9.346,3.996-11.387c4.248-2.041,9.346-0.252,11.387,3.996
				c4.288,9.299,9.48,18.154,15.5,26.437c10.675,14.208,28.933,21.054,45.383,25.875c7.1,2.075,14.283,3.983,21.467,5.9
				c18.833,4.518,37.295,10.463,55.225,17.783c12.026,5.279,23.328,12.071,33.633,20.212c2.884,2.235,4.027,6.057,2.845,9.508
				S337.084,333.445,333.435,333.442L333.435,333.442z"/>
			<path style="fill:#428DFF;" d="M157.777,419.534c-16.177-0.295-32.277-2.298-48.033-5.975c-3.165-0.712-5.653-3.159-6.417-6.312
				c-4.283-17.642-10.275-50.683-2.292-73.767c9.033-28.838,28.7-47.354,50.283-47.354c0.425,0,0.842,0.009,1.275,0.021
				c10.713,0.478,20.796,5.194,28.03,13.11c7.234,7.916,11.024,18.382,10.537,29.095c9.811-0.553,19.515,2.268,27.5,7.996
				c9.651,6.794,15.664,17.629,16.325,29.412c0.792,21.492-18.575,41.158-49.342,50.096
				C176.594,418.486,167.198,419.727,157.777,419.534z M118.71,398.03c25.925,5.304,48.292,5.879,61.95,1.504
				c22.517-6.546,37.75-20.15,37.275-33.154c-0.502-6.519-3.908-12.467-9.275-16.2c-7.529-5.026-16.975-6.244-25.533-3.292
				c-3.02,0.879-6.279,0.026-8.48-2.222c-2.201-2.247-2.987-5.523-2.045-8.524c2.908-7.663,1.897-16.262-2.708-23.042
				c-4.135-5.859-10.723-9.504-17.883-9.896c-13.683-0.592-28.05,14.183-34.767,35.613
				C112.694,351.992,113.268,373.301,118.71,398.03z"/>
			<path style="fill:#428DFF;" d="M400.385,172.117c-2.207,0.001-4.329-0.855-5.917-2.388l-25.167-24.225
				c-1.672-1.607-2.617-3.827-2.617-6.146c0-2.319,0.945-4.538,2.617-6.146l75.484-72.667c2.005-1.933,4.827-2.765,7.56-2.229
				s5.031,2.373,6.157,4.921c11.617,26.238,25.175,34.029,32.009,36.342c3.923-8.116,5.275-17.237,3.875-26.142
				c-2.808-18.8-16.725-37.408-41.375-55.308l-83.467,114.133c-2.771,3.811-8.106,4.654-11.917,1.883
				c-3.811-2.771-4.654-8.106-1.883-11.917L438.627,8.238c5.663-7.82,16.591-9.573,24.417-3.917
				c28.7,20.846,44.95,43.425,48.3,67.108c2.24,14.906-1.205,30.11-9.65,42.596c-0.711,0.999-1.629,1.832-2.692,2.442l-94.35,54.504
				C403.355,171.723,401.883,172.118,400.385,172.117z M387.527,139.359l14.15,13.625l73.167-42.271
				c-11.26-7.507-20.417-17.766-26.6-29.804L387.527,139.359z"/>
		</g>
	</g>
</g>
<g>
</g>
<g>
</g>
<g>
</g>
<g>
</g>
<g>
</g>
<g>
</g>
<g>
</g>
<g>
</g>
<g>
</g>
<g>
</g>
<g>
</g>
<g>
</g>
<g>
</g>
<g>
</g>
<g>
</g>
</svg>
