<svg width="64" height="64" xmlns="http://www.w3.org/2000/svg">

 <g>
  <title>background</title>
  <rect fill="none" id="canvas_background" height="402" width="582" y="-1" x="-1"/>
 </g>
 <g>
  <title>Layer 1</title>
  <circle fill="#00bf00" id="svg_140" r="3" cy="32" cx="57"/>
  <circle fill="#00bf00" id="svg_142" r="3" cy="32" cx="7"/>
  <path fill="#00bf00" id="svg_144" d="m55,33l-7,0c-0.55,0 -1,-0.45 -1,-1s0.45,-1 1,-1l7,0c0.55,0 1,0.45 1,1s-0.45,1 -1,1z"/>
  <path fill="#00bf00" id="svg_146" d="m16,33l-7,0c-0.55,0 -1,-0.45 -1,-1s0.45,-1 1,-1l7,0c0.55,0 1,0.45 1,1s-0.45,1 -1,1z"/>
  <circle fill="#00bf00" id="svg_149" r="3" cy="19.5" cx="53.65"/>
  <circle fill="#00bf00" id="svg_151" r="3" cy="44.5" cx="10.35"/>
  <path fill="#00bf00" id="svg_153" d="m45.89,24.98c-0.35,0 -0.68,-0.18 -0.87,-0.5c-0.28,-0.48 -0.11,-1.09 0.37,-1.37l6,-3.46c0.48,-0.28 1.09,-0.11 1.37,0.37s0.11,1.09 -0.37,1.37l-6,3.46c-0.16,0.09 -0.33,0.13 -0.5,0.13z"/>
  <path fill="#00bf00" id="svg_155" d="m12.11,44.48c-0.35,0 -0.68,-0.18 -0.87,-0.5c-0.28,-0.48 -0.11,-1.09 0.37,-1.37l6,-3.46c0.48,-0.28 1.09,-0.11 1.37,0.37c0.28,0.48 0.11,1.09 -0.37,1.37l-6,3.46c-0.15,0.09 -0.33,0.13 -0.5,0.13z"/>
  <circle fill="#00bf00" id="svg_158" r="3" cy="10.35" cx="44.5"/>
  <circle fill="#00bf00" id="svg_160" r="3" cy="53.65" cx="19.5"/>
  <path fill="#00bf00" id="svg_162" d="m39.75,19.58c-0.17,0 -0.34,-0.04 -0.5,-0.13c-0.48,-0.28 -0.64,-0.89 -0.37,-1.37l4,-6.93c0.28,-0.48 0.89,-0.64 1.37,-0.37c0.48,0.28 0.64,0.89 0.37,1.37l-4,6.93c-0.19,0.32 -0.53,0.5 -0.87,0.5z"/>
  <path fill="#00bf00" id="svg_164" d="m20.25,53.35c-0.17,0 -0.34,-0.04 -0.5,-0.13c-0.48,-0.28 -0.64,-0.89 -0.37,-1.37l4,-6.93c0.28,-0.48 0.89,-0.64 1.37,-0.37c0.48,0.28 0.64,0.89 0.37,1.37l-4,6.93c-0.19,0.32 -0.53,0.5 -0.87,0.5z"/>
  <circle fill="#00bf00" id="svg_167" r="3" cy="7" cx="32"/>
  <circle fill="#00bf00" id="svg_169" r="3" cy="57" cx="32"/>
  <path fill="#00bf00" id="svg_171" d="m32,17c-0.55,0 -1,-0.45 -1,-1l0,-7c0,-0.55 0.45,-1 1,-1s1,0.45 1,1l0,7c0,0.55 -0.45,1 -1,1z"/>
  <path fill="#00bf00" id="svg_173" d="m32,56c-0.55,0 -1,-0.45 -1,-1l0,-7c0,-0.55 0.45,-1 1,-1s1,0.45 1,1l0,7c0,0.55 -0.45,1 -1,1z"/>
  <circle fill="#00bf00" id="svg_176" r="3" cy="10.35" cx="19.5"/>
  <circle fill="#00bf00" id="svg_178" r="3" cy="53.65" cx="44.5"/>
  <path fill="#00bf00" id="svg_180" d="m24.27,19.61c-0.35,0 -0.68,-0.18 -0.87,-0.5l-4.04,-7c-0.28,-0.48 -0.11,-1.09 0.37,-1.37c0.48,-0.28 1.09,-0.11 1.37,0.37l4.04,7c0.28,0.48 0.11,1.09 -0.37,1.37c-0.16,0.09 -0.33,0.13 -0.5,0.13z"/>
  <path fill="#00bf00" id="svg_182" d="m43.75,53.35c-0.35,0 -0.68,-0.18 -0.87,-0.5l-4,-6.93c-0.28,-0.48 -0.11,-1.09 0.37,-1.37c0.48,-0.28 1.09,-0.11 1.37,0.37l4,6.93c0.28,0.48 0.11,1.09 -0.37,1.37c-0.16,0.09 -0.33,0.13 -0.5,0.13z"/>
  <circle fill="#00bf00" id="svg_185" r="3" cy="19.5" cx="10.35"/>
  <circle fill="#00bf00" id="svg_187" r="3" cy="44.5" cx="53.65"/>
  <path fill="#00bf00" id="svg_189" d="m18.11,24.98c-0.17,0 -0.34,-0.04 -0.5,-0.13l-6,-3.46c-0.48,-0.28 -0.64,-0.89 -0.37,-1.37c0.28,-0.48 0.89,-0.64 1.37,-0.37l6,3.46c0.48,0.28 0.64,0.89 0.37,1.37c-0.19,0.32 -0.52,0.5 -0.87,0.5z"/>
  <path fill="#00bf00" id="svg_191" d="m51.89,44.48c-0.17,0 -0.34,-0.04 -0.5,-0.13l-6,-3.46c-0.48,-0.28 -0.64,-0.89 -0.37,-1.37c0.28,-0.48 0.89,-0.64 1.37,-0.37l6,3.46c0.48,0.28 0.64,0.89 0.37,1.37c-0.19,0.32 -0.53,0.5 -0.87,0.5z"/>
  <circle fill="#00bf00" id="svg_194" r="2" cy="32" cx="32"/>
  <circle fill="#00bf00" id="svg_196" r="1.5" cy="22.91" cx="37.25"/>
  <path fill="#00bf00" id="svg_198" d="m32.089258,15c-9.39,0 -17,7.61 -17,17s7.61,17 17,17s17,-7.61 17,-17s-7.61,-17 -17,-17zm2.22,6.16c0.47,-0.81 1.22,-1.39 2.13,-1.63c0.9,-0.24 1.85,-0.12 2.66,0.35c1.67,0.96 2.25,3.11 1.28,4.78c-0.47,0.81 -1.22,1.39 -2.13,1.63c-0.3,0.08 -0.61,0.12 -0.91,0.12c-0.61,0 -1.21,-0.16 -1.74,-0.47c-1.68,-0.97 -2.26,-3.11 -1.29,-4.78zm-9.22,-1.28c0.81,-0.47 1.75,-0.59 2.66,-0.35c0.9,0.24 1.66,0.82 2.13,1.63c0.96,1.67 0.39,3.82 -1.28,4.78c-0.54,0.31 -1.14,0.47 -1.74,0.47c-0.3,0 -0.61,-0.04 -0.91,-0.12c-0.9,-0.24 -1.66,-0.82 -2.13,-1.63c-0.98,-1.67 -0.4,-3.82 1.27,-4.78zm-7,12.12c0,-1.93 1.57,-3.5 3.5,-3.5s3.5,1.57 3.5,3.5s-1.57,3.5 -3.5,3.5s-3.5,-1.57 -3.5,-3.5zm11.78,10.84c-0.47,0.81 -1.22,1.39 -2.13,1.63c-0.3,0.08 -0.61,0.12 -0.91,0.12c-0.61,0 -1.21,-0.16 -1.74,-0.47c-1.67,-0.96 -2.25,-3.11 -1.28,-4.78c0.47,-0.81 1.22,-1.39 2.13,-1.63c0.9,-0.24 1.85,-0.12 2.66,0.35c1.66,0.97 2.24,3.11 1.27,4.78zm-1.78,-10.84c0,-2.21 1.79,-4 4,-4s4,1.79 4,4s-1.79,4 -4,4s-4,-1.79 -4,-4zm11,12.12c-0.54,0.31 -1.14,0.47 -1.74,0.47c-0.3,0 -0.61,-0.04 -0.91,-0.12c-0.9,-0.24 -1.66,-0.82 -2.13,-1.63c-0.96,-1.67 -0.39,-3.82 1.28,-4.78c0.81,-0.47 1.75,-0.59 2.66,-0.35c0.9,0.24 1.66,0.82 2.13,1.63c0.96,1.67 0.38,3.82 -1.29,4.78zm3.5,-8.62c-1.93,0 -3.5,-1.57 -3.5,-3.5s1.57,-3.5 3.5,-3.5s3.5,1.57 3.5,3.5s-1.57,3.5 -3.5,3.5z"/>
  <circle fill="#00bf00" id="svg_200" r="1.5" cy="22.91" cx="26.75"/>
  <circle fill="#00bf00" id="svg_202" r="1.5" cy="32" cx="21.5"/>
  <circle fill="#00bf00" id="svg_204" r="1.5" cy="41.09" cx="26.75"/>
  <circle fill="#00bf00" id="svg_206" r="1.5" cy="41.09" cx="37.25"/>
  <circle fill="#00bf00" id="svg_208" r="1.5" cy="32" cx="42.5"/>
 </g>
</svg>