<svg id="Layer_1" enable-background="new 0 0 510 510" height="512" viewBox="0 0 510 510" width="512" xmlns="http://www.w3.org/2000/svg"><g id="XMLID_1165_"><path d="m255 296 29.667-84.667-29.667-196.333h-45v185.671c-33.94 8.735-64.002 27.123-87.092 52.06l11.342 43.269z" fill="#f1f1f1"/><path d="m365 296 16.113-49.435c-22.203-21.803-50.034-37.229-81.113-45.227v-185.671l-45-.667v240.279 40.721z" fill="#c7c7da"/><path id="XMLID_1166_" d="m255.093 255.296c-20.977-4.684-43.098-1.93-62.808 8.158-22.606 11.569-50.732 7.692-69.381-10.728-6.828 7.373-13.041 15.323-18.57 23.761-18.544 28.305-29.334 62.148-29.334 98.513 0 53.766 23.581 102.018 60.956 135h119.044l180-135z" fill="#8ada52"/><path id="XMLID_1172_" d="m400.703 269.294c-5.898-8.116-12.461-15.717-19.603-22.73-31.272 25.412-73.482 30.051-108.601 14.477-5.688-2.522-11.548-4.441-17.499-5.764v254.723h119.044c37.374-32.982 60.956-81.234 60.956-135 0-39.499-12.727-76.024-34.297-105.706z" fill="#4bb664"/><circle id="XMLID_1169_" cx="210" cy="390" fill="#fee682" r="45"/><path id="XMLID_1164_" d="m345 15-90 15h-90v-30h90z" fill="#c66ed5"/><g id="XMLID_1106_"><g><g id="XMLID_698_"><path d="m255 0h90v30h-90z" fill="#815bcd"/></g></g></g><g id="XMLID_1163_"><g><g id="XMLID_265_"><path d="m300 330h30v30h-30z" fill="#fdd034"/></g></g></g><g id="XMLID_1162_"><g><path id="XMLID_309_" d="m330 420h30v30h-30z" fill="#fdd034"/></g></g></g></svg>