<?xml version="1.0" ?><svg style="enable-background:new 0 0 512 512;" version="1.1" viewBox="0 0 512 512" xml:space="preserve" xmlns="http://www.w3.org/2000/svg" xmlns:xlink="http://www.w3.org/1999/xlink"><g id="_x31_2_x2C__Bacterium_x2C__blood_x2C__germs_x2C__microbe_x2C__virus"><g id="XMLID_8588_"><path d="M258.5,55c113.22,0,205,91.78,205,205c0,113.22-91.78,205-205,205    s-205-91.78-205-205C53.5,146.78,145.28,55,258.5,55z" id="XMLID_8834_" style="fill:#FFFFFF;"/><path d="M258.5,100c88.37,0,160,71.63,160,160s-71.63,160-160,160s-160-71.63-160-160    S170.13,100,258.5,100z" id="XMLID_8828_" style="fill:#9BC9FF;"/><circle cx="453.5" cy="65" id="XMLID_656_" r="30" style="fill:#FFFFFF;"/><circle cx="68.5" cy="450" id="XMLID_655_" r="40" style="fill:#FFFFFF;"/><path d="M245.79,238.43c3.91,3.91,3.91,10.24,0,14.14c-3.9,3.91-10.24,3.91-14.14,0    c-3.91-3.9-3.91-10.23,0-14.14C235.55,234.53,241.89,234.53,245.79,238.43z" id="XMLID_654_" style="fill:#FFFFFF;"/><path d="M344.79,337.43c3.9,3.9,3.9,10.23,0,14.141c-3.91,3.899-10.24,3.899-14.15,0    c-3.9-3.91-3.9-10.24,0-14.141C334.55,333.52,340.88,333.52,344.79,337.43z" id="XMLID_653_" style="fill:#FFFFFF;"/><path d="M288.22,215c5.52,0,10,4.48,10,10s-4.48,10-10,10c-5.53,0-10-4.48-10-10    S282.69,215,288.22,215z" id="XMLID_652_" style="fill:#FFFFFF;"/><path d="M363.88,227.52c6.16,6.17,6.16,16.16,0,22.33c-6.17,6.16-16.16,6.16-22.33,0    c-6.16-6.17-6.16-16.16,0-22.33C347.72,221.36,357.71,221.36,363.88,227.52z" id="XMLID_651_" style="fill:#FFFFFF;"/><path d="M245.79,337.43c3.91,3.9,3.91,10.23,0,14.141c-3.9,3.899-10.24,3.899-14.14,0    c-3.91-3.91-3.91-10.24,0-14.141C235.55,333.52,241.89,333.52,245.79,337.43z" id="XMLID_650_" style="fill:#FFFFFF;"/><path d="M208.52,281.67c7.53,0,13.64,6.1,13.64,13.63s-6.11,13.641-13.64,13.641    s-13.64-6.11-13.64-13.641S200.99,281.67,208.52,281.67z" id="XMLID_649_" style="fill:#FFFFFF;"/><path d="M358.22,285c5.52,0,10,4.48,10,10s-4.48,10-10,10c-5.53,0-10-4.48-10-10    S352.69,285,358.22,285z" id="XMLID_648_" style="fill:#FFFFFF;"/><path d="M288.22,355c5.52,0,10,4.48,10,10s-4.48,10-10,10c-5.53,0-10-4.48-10-10    S282.69,355,288.22,355z" id="XMLID_647_" style="fill:#FFFFFF;"/><path d="M223.5,135c13.81,0,25,11.19,25,25s-11.19,25-25,25s-25-11.19-25-25    S209.69,135,223.5,135z" id="XMLID_646_" style="fill:#FFFFFF;"/><path d="M153.5,235c11.05,0,20,8.95,20,20s-8.95,20-20,20s-20-8.95-20-20    S142.45,235,153.5,235z" id="XMLID_645_" style="fill:#FFFFFF;"/><circle cx="476" cy="392.5" id="XMLID_644_" r="7.5" style="fill:#1E81CE;"/><path d="M288.22,251.67c58.056,0,56.54,86.66,0,86.66c-11.96,0-22.8-4.85-30.64-12.691    c-7.78-7.779-12.62-18.489-12.7-30.34c0-0.1,0-0.2,0-0.3c0-11.96,4.85-22.8,12.7-30.64C265.42,256.52,276.26,251.67,288.22,251.67    z" id="XMLID_8783_" style="fill:#FFFFFF;"/><circle cx="401" cy="462.5" id="XMLID_642_" r="7.5" style="fill:#1E81CE;"/><path d="M278.22,305c3.68,0,6.66,2.98,6.66,6.67c0,3.68-2.98,6.66-6.66,6.66    c-3.68,0-6.67-2.98-6.67-6.66C271.55,307.98,274.54,305,278.22,305z" id="XMLID_641_" style="fill:#9BC9FF;"/><circle cx="386" cy="42.5" id="XMLID_640_" r="7.5" style="fill:#1E81CE;"/><path d="M313.5,160c8.28,0,15,6.72,15,15s-6.72,15-15,15s-15-6.72-15-15    S305.22,160,313.5,160z" id="XMLID_639_" style="fill:#1E81CE;"/><path d="M298.22,271.67c5.52,0,10,4.47,10,10c0,5.521-4.48,10-10,10    c-5.53,0-10-4.479-10-10C288.22,276.14,292.69,271.67,298.22,271.67z" id="XMLID_638_" style="fill:#9BC9FF;"/><path d="M186,340c6.9,0,12.5,5.6,12.5,12.5S192.9,365,186,365s-12.5-5.6-12.5-12.5    S179.1,340,186,340z" id="XMLID_637_" style="fill:#1E81CE;"/><circle cx="156" cy="472.5" id="XMLID_636_" r="7.5" style="fill:#1E81CE;"/><circle cx="141" cy="42.5" id="XMLID_635_" r="7.5" style="fill:#1E81CE;"/><circle cx="56" cy="97.5" id="XMLID_634_" r="7.5" style="fill:#1E81CE;"/><circle cx="41" cy="347.5" id="XMLID_633_" r="7.5" style="fill:#1E81CE;"/><path d="M258.5,470c-115.794,0-210-94.206-210-210c0-115.794,94.206-210,210-210    s210,94.206,210,210C468.5,375.794,374.294,470,258.5,470z M258.5,60c-110.28,0-200,89.72-200,200s89.72,200,200,200    s200-89.72,200-200S368.78,60,258.5,60z" id="XMLID_8745_" style="fill:#1E81CE;"/><path d="M258.5,425c-90.981,0-165-74.019-165-165s74.019-165,165-165s165,74.019,165,165    S349.481,425,258.5,425z M258.5,105c-85.467,0-155,69.533-155,155c0,85.468,69.533,155,155,155s155-69.532,155-155    C413.5,174.533,343.967,105,258.5,105z" id="XMLID_8737_" style="fill:#1E81CE;"/><path d="M288.22,343.33c-12.912,0-25.049-5.027-34.176-14.155    c-9.048-9.046-14.078-21.064-14.165-33.841V295c0-12.916,5.031-25.054,14.167-34.178c9.125-9.126,21.262-14.152,34.173-14.152    c26.649,0,48.33,21.681,48.33,48.33c0,12.911-5.027,25.048-14.154,34.176C313.269,338.303,301.132,343.33,288.22,343.33z     M288.22,256.67c-10.24,0-19.866,3.986-27.105,11.226c-7.247,7.237-11.236,16.862-11.236,27.104v0.3    c0.068,10.097,4.059,19.628,11.235,26.804c7.239,7.24,16.865,11.227,27.105,11.227c10.24,0,19.866-3.986,27.104-11.226    c7.239-7.239,11.226-16.864,11.226-27.104C326.55,273.864,309.355,256.67,288.22,256.67z" id="XMLID_8729_" style="fill:#1E81CE;"/><path d="M288.22,240c-8.271,0-15-6.729-15-15s6.729-15,15-15c8.271,0,15,6.729,15,15    S296.491,240,288.22,240z M288.22,220c-2.757,0-5,2.243-5,5s2.243,5,5,5c2.757,0,5-2.243,5-5S290.977,220,288.22,220z" id="XMLID_8721_" style="fill:#1E81CE;"/><path d="M288.22,380c-8.271,0-15-6.728-15-15s6.729-15,15-15c8.271,0,15,6.728,15,15    S296.491,380,288.22,380z M288.22,360c-2.757,0-5,2.243-5,5s2.243,5,5,5c2.757,0,5-2.243,5-5S290.977,360,288.22,360z" id="XMLID_8713_" style="fill:#1E81CE;"/><path d="M288.22,360c-2.761,0-5-2.238-5-5v-16.67c0-2.762,2.239-5,5-5s5,2.238,5,5V355    C293.22,357.762,290.981,360,288.22,360z" id="XMLID_622_" style="fill:#1E81CE;"/><path d="M288.22,256.67c-2.761,0-5-2.239-5-5V235c0-2.761,2.239-5,5-5s5,2.239,5,5v16.67    C293.22,254.431,290.981,256.67,288.22,256.67z" id="XMLID_621_" style="fill:#1E81CE;"/><path d="M352.715,259.47c-5.549,0-10.769-2.159-14.697-6.081    c-8.097-8.11-8.097-21.297-0.006-29.401c3.934-3.928,9.154-6.087,14.704-6.087c5.55,0,10.77,2.16,14.698,6.081    c8.097,8.11,8.097,21.297,0.005,29.401C363.484,257.31,358.265,259.47,352.715,259.47z M352.715,227.9    c-2.881,0-5.592,1.122-7.632,3.159c-4.196,4.203-4.196,11.05,0.006,15.259c2.034,2.031,4.745,3.152,7.626,3.152    c2.882,0,5.592-1.122,7.632-3.158c4.196-4.203,4.196-11.05-0.006-15.259C358.307,229.021,355.597,227.9,352.715,227.9z" id="XMLID_8699_" style="fill:#1E81CE;"/><path d="M238.72,359.495c-4.008,0-7.774-1.559-10.605-4.389    c-2.838-2.839-4.399-6.61-4.397-10.619c0.002-4.005,1.565-7.768,4.401-10.598c2.822-2.829,6.59-4.392,10.601-4.392    c4.011,0,7.779,1.563,10.61,4.401c2.827,2.82,4.39,6.584,4.393,10.589c0.002,4.01-1.559,7.78-4.397,10.618    C246.495,357.936,242.729,359.495,238.72,359.495z M238.72,339.497c-1.335,0-2.588,0.52-3.53,1.464    c-0.952,0.949-1.472,2.2-1.472,3.532c-0.001,1.336,0.52,2.594,1.468,3.542c0.941,0.941,2.197,1.46,3.534,1.46    c1.338,0,2.593-0.518,3.535-1.461c0.947-0.947,1.469-2.205,1.468-3.541c-0.001-1.331-0.521-2.583-1.464-3.523    C241.309,340.017,240.055,339.497,238.72,339.497z" id="XMLID_8691_" style="fill:#1E81CE;"/><path d="M245.79,342.43c-1.28,0-2.559-0.488-3.536-1.465c-1.953-1.952-1.953-5.118,0-7.07    l11.79-11.79c1.953-1.953,5.118-1.953,7.071,0c1.953,1.952,1.953,5.118,0,7.07l-11.79,11.79    C248.349,341.941,247.07,342.43,245.79,342.43z" id="XMLID_616_" style="fill:#1E81CE;"/><path d="M322.95,273.45c-1.28,0-2.559-0.488-3.536-1.465c-1.953-1.952-1.953-5.118,0-7.07    l18.6-18.601c1.953-1.952,5.118-1.952,7.071,0c1.953,1.953,1.953,5.119,0,7.071l-18.6,18.6    C325.509,272.962,324.23,273.45,322.95,273.45z" id="XMLID_615_" style="fill:#1E81CE;"/><path d="M358.22,310c-8.271,0-15-6.728-15-15s6.729-15,15-15c8.271,0,15,6.728,15,15    S366.491,310,358.22,310z M358.22,290c-2.757,0-5,2.243-5,5s2.243,5,5,5c2.757,0,5-2.243,5-5S360.977,290,358.22,290z" id="XMLID_8677_" style="fill:#1E81CE;"/><path d="M208.52,313.94c-10.278,0-18.64-8.362-18.64-18.641    c0-10.272,8.362-18.63,18.64-18.63c10.278,0,18.64,8.357,18.64,18.63C227.16,305.578,218.798,313.94,208.52,313.94z     M208.52,286.67c-4.764,0-8.64,3.871-8.64,8.63c0,4.765,3.876,8.641,8.64,8.641c4.764,0,8.64-3.876,8.64-8.641    C217.16,290.541,213.284,286.67,208.52,286.67z" id="XMLID_8669_" style="fill:#1E81CE;"/><path d="M244.88,300.3h-22.72c-2.761,0-5-2.238-5-5c0-2.762,2.239-5,5-5h22.72    c2.761,0,5,2.238,5,5C249.88,298.061,247.641,300.3,244.88,300.3z" id="XMLID_610_" style="fill:#1E81CE;"/><path d="M348.22,300h-16.67c-2.761,0-5-2.238-5-5s2.239-5,5-5h16.67c2.761,0,5,2.238,5,5    S350.981,300,348.22,300z" id="XMLID_609_" style="fill:#1E81CE;"/><path d="M238.72,260.502c-4.011,0-7.779-1.563-10.61-4.401    c-2.827-2.819-4.39-6.582-4.392-10.587c-0.003-4.01,1.559-7.781,4.396-10.619c2.83-2.831,6.597-4.39,10.605-4.39    c4.009,0,7.775,1.559,10.606,4.39c2.838,2.837,4.399,6.608,4.397,10.618c-0.003,4.005-1.566,7.768-4.402,10.597    C246.499,258.94,242.731,260.502,238.72,260.502z M238.72,240.505c-1.337,0-2.592,0.519-3.534,1.46    c-0.947,0.948-1.469,2.205-1.468,3.542c0.001,1.332,0.52,2.583,1.463,3.523c0.95,0.953,2.204,1.473,3.538,1.473    c1.336,0,2.589-0.52,3.53-1.463c0.952-0.95,1.472-2.201,1.473-3.532c0.001-1.336-0.521-2.594-1.468-3.541    C241.313,241.023,240.057,240.505,238.72,240.505z" id="XMLID_8655_" style="fill:#1E81CE;"/><path d="M337.715,359.495c-4.004,0-7.771-1.558-10.605-4.385    c-5.847-5.862-5.845-15.375-0.005-21.216c2.835-2.836,6.604-4.397,10.61-4.397c4.007,0,7.775,1.561,10.611,4.397    c5.84,5.841,5.842,15.353,0.004,21.207C345.486,357.938,341.719,359.495,337.715,359.495z M337.715,339.497    c-1.335,0-2.592,0.521-3.539,1.468c-1.946,1.947-1.944,5.12,0.004,7.074c0.938,0.936,2.196,1.456,3.535,1.456    c1.338,0,2.597-0.52,3.544-1.465c1.939-1.945,1.941-5.118-0.005-7.065C340.308,340.019,339.051,339.497,337.715,339.497z" id="XMLID_8647_" style="fill:#1E81CE;"/><path d="M330.64,342.43c-1.28,0-2.561-0.488-3.537-1.466l-11.78-11.79    c-1.952-1.953-1.95-5.119,0.003-7.071c1.953-1.952,5.119-1.951,7.071,0.003l11.78,11.79c1.952,1.953,1.95,5.119-0.003,7.071    C333.198,341.942,331.919,342.43,330.64,342.43z" id="XMLID_604_" style="fill:#1E81CE;"/><path d="M257.58,269.36c-1.28,0-2.559-0.488-3.536-1.465l-11.79-11.79    c-1.953-1.953-1.953-5.119,0-7.071c1.954-1.952,5.119-1.951,7.071,0l11.79,11.791c1.953,1.952,1.953,5.118,0,7.07    C260.139,268.872,258.859,269.36,257.58,269.36z" id="XMLID_603_" style="fill:#1E81CE;"/><path d="M298.22,296.67c-8.271,0-15-6.728-15-15c0-8.271,6.729-15,15-15    c8.271,0,15,6.729,15,15C313.22,289.941,306.491,296.67,298.22,296.67z M298.22,276.67c-2.757,0-5,2.243-5,5c0,2.757,2.243,5,5,5    c2.757,0,5-2.243,5-5C303.22,278.913,300.977,276.67,298.22,276.67z" id="XMLID_8633_" style="fill:#1E81CE;"/><path d="M278.22,323.33c-6.435,0-11.67-5.23-11.67-11.66c0-6.434,5.235-11.67,11.67-11.67    c6.429,0,11.66,5.235,11.66,11.67C289.88,318.1,284.649,323.33,278.22,323.33z M278.22,310c-0.921,0-1.67,0.749-1.67,1.67    c0,0.915,0.749,1.66,1.67,1.66c0.915,0,1.66-0.745,1.66-1.66C279.88,310.749,279.135,310,278.22,310z" id="XMLID_8625_" style="fill:#1E81CE;"/><path d="M223.5,190c-16.542,0-30-13.458-30-30s13.458-30,30-30s30,13.458,30,30    S240.042,190,223.5,190z M223.5,140c-11.028,0-20,8.972-20,20s8.972,20,20,20s20-8.972,20-20S234.528,140,223.5,140z" id="XMLID_8617_" style="fill:#1E81CE;"/><path d="M153.5,280c-13.785,0-25-11.215-25-25c0-13.785,11.215-25,25-25s25,11.215,25,25    C178.5,268.785,167.285,280,153.5,280z M153.5,240c-8.271,0-15,6.729-15,15c0,8.272,6.729,15,15,15s15-6.728,15-15    C168.5,246.729,161.771,240,153.5,240z" id="XMLID_8609_" style="fill:#1E81CE;"/><path d="M453.5,100c-19.299,0-35-15.701-35-35s15.701-35,35-35s35,15.701,35,35    S472.799,100,453.5,100z M453.5,40c-13.785,0-25,11.215-25,25s11.215,25,25,25s25-11.215,25-25S467.285,40,453.5,40z" id="XMLID_8601_" style="fill:#1E81CE;"/><path d="M68.5,495c-24.813,0-45-20.186-45-45s20.187-45,45-45s45,20.186,45,45    S93.313,495,68.5,495z M68.5,415c-19.299,0-35,15.701-35,35s15.701,35,35,35s35-15.701,35-35S87.799,415,68.5,415z" id="XMLID_8590_" style="fill:#1E81CE;"/></g></g><g id="Layer_1"/></svg>