<svg width="313" height="319" viewBox="0 0 313 319" fill="none" xmlns="http://www.w3.org/2000/svg">
<g clip-path="url(#clip0_921_1089)">
<path d="M304.434 264.046L291.627 226.418L255.873 228.108L304.434 264.046Z" fill="url(#paint0_linear_921_1089)"/>
<path d="M304.448 264.042L255.877 228.164L232.724 259.663L281.294 295.541L304.448 264.042Z" fill="url(#paint1_linear_921_1089)"/>
<path d="M65.6305 52.4982L17.2905 58.0634L9.97656 101.47L65.6305 52.4982Z" fill="url(#paint2_linear_921_1089)"/>
<path d="M65.6284 52.4804L10.0449 101.48L41.6665 137.526L97.2499 88.5271L65.6284 52.4804Z" fill="url(#paint3_linear_921_1089)"/>
<path d="M268.641 85.6292L172.072 54.2908L120.744 130.353L268.641 85.6292Z" fill="url(#paint4_linear_921_1089)"/>
<path d="M107.028 68.3024L100.715 66.188L106.823 47.8597L114.812 50.5355L107.028 68.3024Z" fill="#FFC800"/>
<path d="M114.81 50.5348L111.843 57.3132L107.025 68.3043L100.711 66.1896L106.82 47.859L114.81 50.5348Z" fill="#FFC800"/>
<path opacity="0.1" d="M114.81 50.5348L111.843 57.3132L104.49 54.8508L106.82 47.859L114.81 50.5348Z" fill="black"/>
<path d="M117.177 45.9203L107.236 42.5913L104.714 50.161L114.654 53.4899L117.177 45.9203Z" fill="#FFC800"/>
<path d="M124.753 45.3836L116.773 43.571L120.855 31.3217L128.319 34.6809L124.753 45.3836Z" fill="#FFC800"/>
<path d="M117.694 27.5664L111.67 45.6433L98.1944 42.8598L64.3672 43.881L78.8344 0.468994L105.256 21.6717L117.694 27.5664Z" fill="url(#paint5_linear_921_1089)"/>
<path d="M77.8936 24.2838C81.9085 12.2361 82.0316 1.42083 78.1686 0.127157C74.3056 -1.16651 67.9193 7.55132 63.9044 19.599C59.8895 31.6466 59.7664 42.4619 63.6294 43.7556C67.4924 45.0493 73.8787 36.3314 77.8936 24.2838Z" fill="url(#paint6_linear_921_1089)"/>
<path opacity="0.2" d="M76.3875 23.3628C79.9517 12.6676 80.2771 3.1388 77.1143 2.07962C73.9515 1.02044 68.4982 8.83198 64.934 19.5272C61.3698 30.2224 61.0444 39.7512 64.2072 40.8104C67.37 41.8696 72.8233 34.058 76.3875 23.3628Z" fill="black"/>
<path d="M75.4535 23.0517C74.9788 24.4761 74.4698 25.8474 73.936 27.1531C73.13 27.4572 72.2545 27.526 71.4111 27.3515C70.5677 27.177 69.7909 26.7664 69.1709 26.1673C68.5509 25.5681 68.113 24.805 67.9081 23.9665C67.7032 23.128 67.7397 22.2484 68.0133 21.4299L68.6957 19.3822C68.9661 18.5663 69.4611 17.8436 70.1234 17.2974C70.7858 16.7513 71.5887 16.4038 72.4395 16.2951C73.2903 16.1865 74.1544 16.321 74.9322 16.6832C75.71 17.0455 76.3699 17.6207 76.8358 18.3425C76.4514 19.8701 75.9875 21.4492 75.4535 23.0517Z" fill="#FFC800"/>
<path d="M118.324 48.9852L102.893 45.4803L110.787 21.7915L125.221 28.2879L118.324 48.9852Z" fill="url(#paint7_linear_921_1089)"/>
<path opacity="0.2" d="M118.324 48.9852L102.893 45.4803L110.787 21.7915L125.221 28.2879L118.324 48.9852Z" fill="url(#paint8_linear_921_1089)"/>
<path opacity="0.2" d="M79.8702 4.12146C80.5354 5.71838 80.6702 7.47937 80.7253 9.19561C80.7427 10.9232 80.6231 12.6494 80.3674 14.3579C80.2646 15.2157 80.0835 16.0603 79.9333 16.9103C79.7367 17.7499 79.5644 18.5962 79.3474 19.4307C79.1167 20.2612 78.9161 21.1013 78.6605 21.9244C78.4015 22.7464 78.1619 23.5751 77.8869 24.3918C76.8065 27.6708 75.4294 30.8439 73.7726 33.8714C72.9327 35.3814 71.9619 36.8143 70.8713 38.1535C69.7475 39.449 68.497 40.712 66.9258 41.4353C68.4406 40.614 69.6316 39.3355 70.6838 38.0007C71.7263 36.646 72.6489 35.2027 73.4413 33.6874C75.0343 30.6557 76.3656 27.4929 77.4206 24.2336C78.5527 21 79.4136 17.6775 79.9945 14.3004C80.2909 12.6144 80.455 10.9078 80.4851 9.19608C80.5102 7.49194 80.4288 5.75109 79.8702 4.12146Z" fill="black"/>
<path d="M64.1191 1.22656C64.8062 1.95968 65.4541 2.72347 66.096 3.49163C66.742 4.25672 67.3598 5.04375 67.9777 5.83084C68.587 6.62463 69.1955 7.41896 69.7763 8.23479L70.6464 9.45962C70.9233 9.87809 71.2125 10.287 71.4786 10.7139C71.1314 10.3502 70.8074 9.96851 70.4709 9.59638L69.5011 8.44933C68.8554 7.68404 68.2373 6.89701 67.62 6.10962C67.0112 5.31552 66.4025 4.52133 65.8219 3.70516C65.2374 2.89223 64.6587 2.0747 64.1191 1.22656Z" fill="url(#paint9_linear_921_1089)"/>
<path d="M65.3249 31.045C64.2008 31.1656 63.0755 31.2364 61.9499 31.2997C60.8247 31.3683 59.6984 31.401 58.5721 31.4337C57.4457 31.4556 56.3192 31.4765 55.1918 31.4623L53.5008 31.4394C52.9367 31.4151 52.3731 31.4065 51.8086 31.3685C52.3706 31.3035 52.9333 31.2679 53.4955 31.2167L55.1835 31.113C56.3089 31.0448 57.435 31.0118 58.5614 30.9796C59.6879 30.9584 60.8144 30.9373 61.9417 30.9518C63.0689 30.9613 64.1964 30.9783 65.3249 31.045Z" fill="url(#paint10_linear_921_1089)"/>
<path d="M45.375 24.0828C47.03 24.1979 48.6788 24.3625 50.3266 24.5346C51.975 24.7015 53.619 24.9038 55.2629 25.1064C56.9056 25.3194 58.5481 25.5336 60.1862 25.7825L62.6432 26.1577C63.4601 26.2992 64.2789 26.4252 65.0942 26.5803C64.2661 26.5274 63.4418 26.4452 62.6154 26.3786L60.1427 26.1293C58.4943 25.962 56.8502 25.7599 55.2063 25.5568C53.5638 25.343 51.9212 25.1291 50.2832 24.8797C48.6444 24.6355 47.0066 24.3839 45.375 24.0828Z" fill="url(#paint11_linear_921_1089)"/>
<path d="M54.9219 0.187012C56.1881 1.29756 57.4195 2.44351 58.6458 3.59496C59.8756 4.74278 61.0805 5.9159 62.2853 7.08929C63.4826 8.27038 64.6793 9.45211 65.8515 10.6589L67.6086 12.4704C68.1826 13.0862 68.7676 13.6906 69.3321 14.3162C68.6958 13.7643 68.0799 13.1913 67.4531 12.6297L65.6076 10.9088C64.378 9.76082 63.173 8.5877 61.9686 7.41391C60.7717 6.23235 59.575 5.05076 58.403 3.8437C57.2277 2.64041 56.0574 1.43141 54.9219 0.187012Z" fill="url(#paint12_linear_921_1089)"/>
<path d="M66.6913 20.345C64.8275 19.7982 62.9798 19.2046 61.1347 18.6037C59.2892 18.0039 57.4569 17.3653 55.6175 16.748C53.7899 16.0961 51.956 15.4626 50.1345 14.7931L47.4052 13.7804C46.5008 13.427 45.5914 13.0885 44.6914 12.7223C45.6248 12.9913 46.5487 13.2879 47.4777 13.5699L50.2483 14.4628C52.0934 15.0638 53.9262 15.7008 55.7653 16.3191C57.5924 16.9724 59.4269 17.6043 61.248 18.2749C63.0695 18.9445 64.8886 19.6212 66.6913 20.345Z" fill="url(#paint13_linear_921_1089)"/>
<path d="M122.311 63.6254C119.014 61.0705 117.943 56.9165 116.964 53.2804C116.648 52.1049 116.128 49.7439 115.846 48.7911C115.606 47.9804 115.917 44.2737 114.279 43.9856C112.641 43.6974 112.862 48.9342 112.961 50.1855C113.153 52.6011 109.8 56.6412 110.739 58.433C110.786 58.5244 110.73 58.6219 110.594 58.725L107.345 65.2922L105.867 67.9223L104.256 67.3731C106.367 69.1267 108.93 70.2458 111.649 70.6012C111.649 70.6012 116.793 70.1515 119.741 70.6697C122.277 71.1156 127.96 68.0032 122.311 63.6254Z" fill="url(#paint14_linear_921_1089)"/>
<path d="M108.629 48.9851C108.629 48.9851 111.786 50.3125 111.335 52.957C110.884 55.6015 111.599 56.8786 110.338 58.2912C109.076 59.7038 108.368 61.988 106.499 63.5913C105.682 64.2922 104.113 64.6256 102.689 64.959C101.265 65.2923 98.7741 64.6256 98.4181 62.9586C98.0622 61.2917 97.3504 54.9573 97.7064 53.2904C98.0625 51.6235 98.7873 48.7623 100.382 47.8592C101.978 46.956 102.743 47.3414 104.14 47.6488C105.537 47.9562 108.629 48.9851 108.629 48.9851Z" fill="url(#paint15_linear_921_1089)"/>
<path d="M126.381 281.002C125.442 281.002 124.487 280.979 123.51 280.932C101.479 279.859 78.4522 268.339 63.0144 258.863C53.0269 252.753 43.507 245.906 34.5337 238.379C34.4479 238.304 34.3776 238.213 34.327 238.111C34.2763 238.009 34.2462 237.898 34.2384 237.784C34.2306 237.67 34.2452 237.556 34.2814 237.448C34.3176 237.34 34.3747 237.24 34.4494 237.154C34.5241 237.068 34.615 236.998 34.7169 236.947C34.8188 236.896 34.9296 236.866 35.0432 236.858C35.1567 236.85 35.2706 236.865 35.3785 236.901C35.4863 236.937 35.586 236.995 35.6718 237.069C44.5801 244.539 54.0305 251.334 63.9448 257.397C79.2033 266.76 101.938 278.142 123.594 279.196C141.901 280.087 155.906 271.737 158.455 258.417C159.083 254.975 158.912 251.435 157.954 248.071C151.145 247.878 143.582 247.065 135.266 245.633C103.862 240.22 85.3469 233.283 83.132 226.102C82.5561 224.234 83.0961 222.426 84.6942 220.873C90.4909 215.239 109.845 213.365 127.071 219.291C146.557 225.995 156.037 236.507 159.252 246.372C176.791 246.697 188.892 242.707 195.405 234.471C206.089 220.958 197.524 200.239 197.436 200.031C197.391 199.926 197.368 199.813 197.366 199.699C197.365 199.585 197.386 199.471 197.429 199.365C197.471 199.259 197.534 199.163 197.614 199.081C197.694 199 197.789 198.935 197.894 198.89C197.999 198.845 198.112 198.822 198.226 198.821C198.34 198.82 198.453 198.842 198.559 198.885C198.664 198.928 198.76 198.991 198.842 199.071C198.923 199.152 198.987 199.247 199.031 199.353C199.407 200.238 208.089 221.215 196.769 235.542C189.987 244.126 177.588 248.306 159.755 248.107C160.668 251.58 160.805 255.212 160.157 258.744C157.995 270.045 146.739 281.001 126.381 281.002ZM104.979 217.403C96.2251 217.403 88.9045 219.2 85.9003 222.12C84.7706 223.219 84.4067 224.353 84.7879 225.589C85.52 227.963 91.3447 236.299 135.56 243.921C142.779 245.214 150.078 246.017 157.406 246.324C154.157 237.097 145.002 227.297 126.508 220.935C119.569 218.598 112.299 217.405 104.979 217.403Z" fill="url(#paint16_linear_921_1089)"/>
<g opacity="0.4">
<path d="M25.986 319C26.8164 319 27.4896 318.325 27.4896 317.493C27.4896 316.66 26.8164 315.985 25.986 315.985C25.1556 315.985 24.4824 316.66 24.4824 317.493C24.4824 318.325 25.1556 319 25.986 319Z" fill="white"/>
<path d="M36.2868 319C37.1172 319 37.7904 318.325 37.7904 317.493C37.7904 316.66 37.1172 315.985 36.2868 315.985C35.4564 315.985 34.7832 316.66 34.7832 317.493C34.7832 318.325 35.4564 319 36.2868 319Z" fill="white"/>
<path d="M46.5876 319C47.418 319 48.0912 318.325 48.0912 317.493C48.0912 316.66 47.418 315.985 46.5876 315.985C45.7572 315.985 45.084 316.66 45.084 317.493C45.084 318.325 45.7572 319 46.5876 319Z" fill="white"/>
</g>
<path d="M268.654 85.5934L120.867 130.431L149.803 226.273L297.59 181.435L268.654 85.5934Z" fill="url(#paint17_linear_921_1089)"/>
<path d="M184.787 65.6825C184.787 65.6825 179.167 70.1134 151.647 71.7091C136.619 72.5804 121.232 63.9298 121.232 63.9298C121.232 63.9298 111.801 70.2347 117.121 74.6909C122.441 79.1472 133.404 87.1084 152.225 91.4778C171.046 95.8471 186.089 91.4035 186.089 91.4035L184.787 65.6825Z" fill="url(#paint18_linear_921_1089)"/>
<path d="M195.333 63.9803C195.333 63.9803 200.819 63.5805 202.71 57.2583C204.602 50.936 204.732 49.6683 204.732 49.6683C202.291 49.7411 199.852 49.5019 197.471 48.9565C193.442 48.0479 195.564 44.4689 196.806 42.2888C197.598 40.9062 198.266 39.4559 198.802 37.9548C198.802 37.9548 197.232 37.5295 196.474 35.2877C199.467 33.2873 199.467 32.2872 201.13 31.287C202.665 30.3635 203.458 29.6201 203.458 27.6198C203.458 26.6729 205.786 19.6185 207.449 21.2854C208.126 21.884 208.918 22.3378 209.777 22.619C209.777 22.619 213.499 23.1403 216.367 25.0974C219.235 27.0544 228.778 36.4045 228.778 36.4045C228.778 36.4045 223.358 44.9451 221.04 48.4183C218.721 51.8916 218.001 59.6841 218.897 63.3217C219.408 65.4646 220.457 67.4411 221.943 69.0641L218.903 77.9344L210.629 91.1805L200.156 87.8676L190.881 66.6963L195.333 63.9803Z" fill="url(#paint19_linear_921_1089)"/>
<path d="M180.843 153.307C180.843 153.307 174.475 130.194 174.255 108.118C173.997 82.2018 176.158 72.8505 179.845 68.6263C182.173 65.9592 186.894 65.1195 186.894 65.1195L195.333 63.9802C195.333 63.9802 195.557 84.6339 209.444 76.961C213.892 74.439 217.57 70.751 220.086 66.2926L235.654 72.7339C235.654 72.7339 230.157 79.5873 228.531 81.8707C226.906 84.1541 228.733 86.6292 228.733 86.6292C228.733 86.6292 235.052 86.6292 233.904 103.696C233.247 113.46 227.735 124.969 227.735 144.639C227.735 152.601 228.423 156.087 228.423 156.087C228.423 156.087 219.059 163.715 200.464 160.308C181.87 156.901 180.843 153.307 180.843 153.307Z" fill="url(#paint20_linear_921_1089)"/>
<path d="M234.386 113.3C234.527 120.061 240.392 136.2 249.203 131.718C258.014 127.236 256.504 111.37 255.584 101.916C254.663 92.4618 251.195 86.2692 248.116 81.4235C245.037 76.5778 241.825 74.1912 234.783 72.4987C233.835 72.2623 232.844 72.2554 231.893 72.4787C230.941 72.702 230.056 73.149 229.311 73.7828C225.78 76.5836 224.076 91.2966 228.067 97.2975C230.926 101.596 234.297 109.011 234.386 113.3Z" fill="url(#paint21_linear_921_1089)"/>
<path d="M228.803 17.0053C221.157 10.5037 217.894 15.0367 211.439 13.9507C204.983 12.8647 204.018 10.3713 204.018 10.3713C204.018 10.3713 204.455 11.617 202.816 14.8823C197.702 25.0785 213.603 24.0178 216.639 25.9819C219.675 27.946 218.746 35.2486 218.746 35.2486C218.746 35.2486 218.917 35.3327 220.751 33.9539C220.865 33.8678 220.969 33.7893 221.068 33.7145C221.359 33.3884 221.712 33.1236 222.106 32.9353C222.5 32.7471 222.927 32.6391 223.363 32.6177C223.799 32.5964 224.235 32.662 224.646 32.8108C225.056 32.9596 225.433 33.1887 225.755 33.4847C227.193 34.8171 225.739 38.2877 221.083 39.9549C222.746 43.6222 221.039 48.4182 221.039 48.4182C221.039 48.4182 232.626 39.1333 234.538 31.3202C236.449 23.507 236.449 23.5071 228.803 17.0053Z" fill="#062440"/>
<path d="M204.384 27.5112C204.595 27.5673 204.802 27.6367 205.005 27.719C205.195 27.7951 205.38 27.8782 205.562 27.9666C205.923 28.1429 206.27 28.347 206.599 28.577C207.254 29.0265 207.827 29.5844 208.295 30.2269L207.753 30.7051C207.496 30.4766 207.219 30.271 206.926 30.0906C206.637 29.9108 206.334 29.7569 206.018 29.6308C205.707 29.5027 205.387 29.399 205.06 29.3208C204.898 29.2823 204.735 29.2491 204.574 29.223C204.425 29.1975 204.275 29.1818 204.125 29.176L204.384 27.5112Z" fill="#D8A38F"/>
<path d="M204.587 30.9527C204.572 30.9342 204.556 30.9165 204.54 30.8997L204.526 30.8869L204.503 30.8678C204.497 30.8634 204.491 30.8597 204.485 30.8569C204.47 30.8496 204.478 30.8567 204.475 30.858C204.472 30.8628 204.492 30.878 204.501 30.889C204.539 30.9206 204.579 30.9495 204.621 30.9757C204.725 31.0402 204.833 31.099 204.943 31.1519C205.176 31.2663 205.434 31.3675 205.693 31.4653C206.215 31.6578 206.761 31.8253 207.311 31.9812L207.208 32.7033C206.622 32.6924 206.034 32.6694 205.435 32.6121C205.135 32.5808 204.834 32.5461 204.52 32.4841C204.356 32.4529 204.193 32.4133 204.033 32.3657C203.948 32.3399 203.859 32.3087 203.763 32.269C203.71 32.2438 203.666 32.2263 203.603 32.1903C203.57 32.172 203.537 32.1518 203.506 32.1297L203.445 32.0853L203.402 32.0479L203.379 32.026C203.359 32.006 203.34 31.9848 203.322 31.963L204.587 30.9527Z" fill="#D8A38F"/>
<path d="M197.589 40.9216C197.648 40.9623 197.71 40.9984 197.775 41.0298C197.85 41.068 197.928 41.1068 198.009 41.1419C198.169 41.2145 198.339 41.28 198.511 41.3399C198.862 41.4605 199.22 41.5587 199.583 41.6339C199.955 41.7082 200.33 41.7618 200.708 41.7944C201.088 41.8299 201.473 41.8375 201.861 41.8363L201.941 42.5159C201.54 42.597 201.134 42.6692 200.721 42.7122C200.306 42.7579 199.888 42.7805 199.47 42.7799C199.044 42.7766 198.619 42.7462 198.197 42.6889C197.983 42.6591 197.768 42.622 197.552 42.5722C197.443 42.5489 197.334 42.5202 197.224 42.4893C197.101 42.4559 196.98 42.4151 196.861 42.3671L197.589 40.9216Z" fill="#D8A38F"/>
<path d="M230.329 147.287C231.211 151.316 234.084 153.153 237.768 153.161C237.768 153.161 240.436 152.663 240.436 147.847C240.436 141.484 237.45 136.327 233.766 136.327C230.082 136.327 228.968 141.072 230.329 147.287Z" fill="#000300"/>
<path d="M245.316 133.843C245.212 133.843 245.111 133.806 245.032 133.737C244.953 133.669 244.902 133.574 244.887 133.47C244.872 133.367 244.895 133.262 244.952 133.174C245.008 133.086 245.095 133.021 245.195 132.992L256.88 129.571C256.99 129.539 257.108 129.553 257.208 129.608C257.308 129.664 257.382 129.757 257.414 129.867C257.446 129.977 257.434 130.095 257.379 130.196C257.325 130.296 257.233 130.371 257.124 130.405L245.438 133.826C245.398 133.837 245.357 133.843 245.316 133.843Z" fill="black"/>
<path d="M246.545 131.458C246.451 131.458 246.361 131.428 246.286 131.372C246.211 131.316 246.156 131.238 246.129 131.148C246.103 131.058 246.106 130.963 246.138 130.875C246.17 130.787 246.229 130.712 246.307 130.66L252.381 126.669C252.477 126.607 252.594 126.585 252.706 126.608C252.819 126.632 252.917 126.699 252.98 126.795C253.043 126.891 253.065 127.008 253.042 127.121C253.019 127.233 252.952 127.332 252.857 127.396L246.782 131.387C246.711 131.433 246.629 131.458 246.545 131.458Z" fill="black"/>
<path d="M120.867 130.431L209.229 155.934L149.803 226.273L120.867 130.431Z" fill="url(#paint22_linear_921_1089)"/>
<path d="M269.319 85.5935L210.018 155.896L298.379 181.398L269.319 85.5935Z" fill="url(#paint23_linear_921_1089)"/>
<path d="M297.59 181.436L204.297 145.322L149.803 226.273L297.59 181.436Z" fill="url(#paint24_linear_921_1089)"/>
<path d="M73.7466 75.1861L51.7709 108.677C51.3556 109.31 50.7066 109.751 49.9667 109.904C49.2267 110.057 48.4564 109.91 47.8251 109.493L1.28342 78.804C0.652165 78.3878 0.211685 77.7373 0.0588813 76.9955C-0.0939228 76.2538 0.0534648 75.4816 0.468622 74.8487L22.4444 41.358C22.65 41.0447 22.9151 40.775 23.2247 40.5644C23.5342 40.3538 23.8821 40.2063 24.2485 40.1305C24.6149 40.0547 24.9926 40.0519 25.3601 40.1225C25.7275 40.193 26.0775 40.3354 26.39 40.5415L72.9321 71.2307C73.5633 71.6469 74.0037 72.2975 74.1565 73.0393C74.3093 73.7811 74.1618 74.5533 73.7466 75.1861Z" fill="#FFC816"/>
<path d="M66.746 74.6921L53.8895 94.2852C53.688 94.5923 53.3731 94.8066 53.014 94.8809C52.655 94.9552 52.2811 94.8835 51.9748 94.6815L33.1871 82.2927C33.0355 82.1927 32.9049 82.0637 32.803 81.9131C32.701 81.7625 32.6297 81.5933 32.593 81.4151C32.5563 81.2368 32.555 81.0531 32.5891 80.8744C32.6232 80.6956 32.6922 80.5254 32.7919 80.3733L45.6483 60.7802C45.8498 60.4731 46.1647 60.2588 46.5238 60.1845C46.8829 60.1102 47.2567 60.1819 47.563 60.3839L66.3508 72.7725C66.5025 72.8726 66.6331 73.0016 66.735 73.1522C66.837 73.3028 66.9083 73.472 66.945 73.6503C66.9817 73.8285 66.983 74.0123 66.9489 74.191C66.9147 74.3698 66.8458 74.54 66.746 74.6921Z" fill="white"/>
<path d="M9.81014 77.23C9.47477 77.2978 9.12689 77.2646 8.81033 77.1346C8.49376 77.0045 8.22267 76.7835 8.0312 76.4992C7.83974 76.215 7.73647 75.8804 7.73441 75.5374C7.73234 75.1945 7.83158 74.8586 8.01961 74.5721L25.8936 47.3329C26.0184 47.1417 26.1796 46.9771 26.368 46.8485C26.5564 46.7199 26.7683 46.6298 26.9914 46.5834C27.2146 46.5369 27.4447 46.5351 27.6686 46.5779C27.8925 46.6208 28.1058 46.7074 28.2962 46.833C28.4866 46.9586 28.6505 47.1206 28.7784 47.3097C28.9063 47.4988 28.9957 47.7114 29.0415 47.9352C29.0874 48.159 29.0887 48.3897 29.0455 48.614C29.0023 48.8384 28.9154 49.052 28.7897 49.2426L10.9157 76.4817C10.7901 76.6736 10.6276 76.8386 10.4378 76.967C10.248 77.0955 10.0347 77.1849 9.81014 77.23Z" fill="white"/>
<path d="M16.9644 81.9475C16.6291 82.0153 16.2812 81.9821 15.9646 81.852C15.6481 81.722 15.377 81.5009 15.1855 81.2167C14.994 80.9325 14.8908 80.5978 14.8887 80.2549C14.8866 79.9119 14.9859 79.576 15.1739 79.2895L33.0474 52.0505C33.1722 51.8592 33.3335 51.6946 33.5219 51.5659C33.7103 51.4372 33.9221 51.3471 34.1454 51.3006C34.3686 51.2541 34.5987 51.2522 34.8227 51.2951C35.0466 51.3379 35.2599 51.4246 35.4504 51.5502C35.6408 51.6758 35.8047 51.8378 35.9326 52.027C36.0605 52.2162 36.1499 52.4288 36.1957 52.6526C36.2416 52.8765 36.2429 53.1072 36.1996 53.3316C36.1563 53.556 36.0693 53.7696 35.9436 53.9602L18.0701 81.1993C17.9444 81.3912 17.782 81.5562 17.5922 81.6846C17.4024 81.8131 17.189 81.9024 16.9644 81.9475Z" fill="white"/>
<path d="M24.1188 86.6651C23.7834 86.733 23.4355 86.6997 23.1189 86.5697C22.8024 86.4396 22.5313 86.2186 22.3398 85.9344C22.1483 85.6501 22.0451 85.3155 22.043 84.9725C22.0409 84.6296 22.1402 84.2937 22.3282 84.0071L40.2017 56.7681C40.4552 56.3851 40.8498 56.1183 41.299 56.0263C41.7482 55.9342 42.2155 56.0244 42.5986 56.277C42.9817 56.5296 43.2493 56.924 43.3429 57.374C43.4365 57.824 43.3484 58.2928 43.0979 58.6778L25.2244 85.9169C25.0987 86.1088 24.9363 86.2738 24.7465 86.4022C24.5567 86.5307 24.3433 86.6201 24.1188 86.6651Z" fill="white"/>
<path d="M311.215 250.824L274.641 268.156C273.894 268.51 273.037 268.552 272.259 268.273C271.482 267.994 270.846 267.416 270.493 266.667L257.68 239.494C257.505 239.124 257.405 238.722 257.385 238.312C257.365 237.903 257.425 237.493 257.563 237.107C257.701 236.721 257.913 236.366 258.188 236.062C258.463 235.759 258.795 235.512 259.165 235.337L295.739 218.005C296.109 217.83 296.51 217.729 296.918 217.709C297.327 217.689 297.735 217.75 298.12 217.888C298.505 218.027 298.86 218.24 299.163 218.515C299.466 218.79 299.712 219.123 299.886 219.494L312.7 246.667C312.875 247.038 312.975 247.439 312.995 247.849C313.015 248.258 312.954 248.668 312.817 249.054C312.679 249.44 312.466 249.795 312.192 250.099C311.917 250.402 311.585 250.649 311.215 250.824Z" fill="#FFC816"/>
<path d="M281.711 257.849C281.62 257.849 281.531 257.842 281.441 257.829C280.987 257.758 280.58 257.509 280.308 257.137C280.037 256.765 279.925 256.3 279.995 255.845L282.079 242.437C282.122 242.156 282.234 241.891 282.403 241.664C282.572 241.437 282.795 241.254 283.051 241.133C283.306 241.012 283.588 240.955 283.871 240.968C284.153 240.981 284.429 241.063 284.672 241.208L294.807 247.203L297.281 231.283C297.355 230.831 297.605 230.426 297.975 230.158C298.345 229.889 298.806 229.778 299.258 229.848C299.709 229.919 300.115 230.165 300.386 230.534C300.658 230.903 300.773 231.364 300.706 231.817L297.839 250.268C297.796 250.548 297.684 250.813 297.515 251.041C297.346 251.268 297.123 251.45 296.867 251.571C296.611 251.693 296.33 251.749 296.047 251.736C295.764 251.723 295.489 251.641 295.245 251.497L285.111 245.502L283.421 256.379C283.357 256.788 283.15 257.161 282.836 257.431C282.523 257.7 282.124 257.849 281.711 257.849Z" fill="white"/>
<path d="M276.821 239.843C277.366 240.998 277.556 242.288 277.369 243.552C277.182 244.816 276.625 245.995 275.769 246.942C274.913 247.888 273.796 248.559 272.56 248.869C271.324 249.179 270.024 249.115 268.824 248.684C267.624 248.253 266.579 247.476 265.82 246.45C265.061 245.423 264.623 244.195 264.56 242.919C264.498 241.643 264.815 240.377 265.47 239.281C266.125 238.186 267.09 237.31 268.242 236.764C269.787 236.032 271.559 235.945 273.168 236.522C274.777 237.099 276.091 238.294 276.821 239.843Z" fill="white"/>
<path d="M224.596 207.953H251.85L265.973 217.05L263.954 207.953H262.951C268.168 207.953 272.397 204.162 272.397 199.486V185.473C272.397 180.796 268.168 177.005 262.951 177.005H224.596C219.379 177.005 215.15 180.796 215.15 185.473V199.486C215.151 204.162 219.379 207.953 224.596 207.953Z" fill="white"/>
<path d="M265.973 217.484C265.89 217.484 265.809 217.46 265.739 217.415L251.723 208.387H224.596C219.148 208.387 214.717 204.394 214.717 199.486V185.472C214.717 180.564 219.148 176.571 224.596 176.571H262.95C268.398 176.571 272.83 180.564 272.83 185.472V199.486C272.83 203.929 269.199 207.621 264.471 208.282L266.396 216.955C266.41 217.019 266.41 217.085 266.395 217.148C266.381 217.211 266.352 217.271 266.311 217.321C266.271 217.372 266.219 217.413 266.161 217.441C266.102 217.469 266.038 217.484 265.973 217.484Z" fill="url(#paint25_linear_921_1089)"/>
<path d="M224.596 177.439C219.627 177.439 215.584 181.043 215.584 185.472V199.486C215.584 203.915 219.627 207.519 224.596 207.519H251.851C251.934 207.519 252.015 207.543 252.085 207.587L265.322 216.114L263.607 208.387H262.951C262.894 208.387 262.838 208.376 262.785 208.354C262.733 208.333 262.685 208.301 262.645 208.26C262.604 208.22 262.572 208.172 262.551 208.119C262.529 208.067 262.518 208.01 262.518 207.953C262.518 207.896 262.529 207.84 262.551 207.787C262.572 207.734 262.604 207.686 262.645 207.646C262.685 207.606 262.733 207.574 262.785 207.552C262.838 207.53 262.894 207.519 262.951 207.519C267.92 207.519 271.964 203.915 271.964 199.486V185.472C271.964 181.043 267.92 177.439 262.951 177.439H224.596Z" fill="white"/>
<path d="M243.857 185.124C243.857 185.124 241.62 181.958 238.036 182.563C234.451 183.167 232.753 187.05 233.271 189.531C233.758 191.862 233.938 195.311 242.16 201.499C242.654 201.869 243.256 202.068 243.873 202.066C244.49 202.064 245.09 201.86 245.581 201.486C248.292 199.428 253.317 195.179 254.057 191.479C255.078 186.374 253.458 184.193 250.849 182.851C248.239 181.508 244.77 183.542 243.857 185.124Z" fill="url(#paint26_linear_921_1089)"/>
<path d="M173.219 28.3332H153.819L143.766 34.8082L145.203 28.3332H145.917C142.204 28.3332 139.193 25.6347 139.193 22.3061V12.3311C139.193 9.00251 142.204 6.30408 145.917 6.30408H173.219C176.932 6.30408 179.942 9.00251 179.942 12.3311V22.3061C179.942 25.6347 176.932 28.3332 173.219 28.3332Z" fill="white"/>
<path d="M143.765 35.2427C143.701 35.2427 143.636 35.2281 143.578 35.2C143.519 35.1719 143.468 35.1309 143.427 35.0802C143.387 35.0295 143.358 34.9703 143.343 34.9069C143.329 34.8436 143.328 34.7777 143.342 34.7142L144.684 28.6715C141.323 28.1426 138.76 25.4894 138.76 22.3061V12.3312C138.76 8.76861 141.97 5.86987 145.917 5.86987H173.219C177.165 5.86987 180.375 8.76861 180.375 12.3312V22.3061C180.375 25.869 177.165 28.7674 173.219 28.7674H153.946L144 35.1736C143.93 35.2187 143.849 35.2428 143.765 35.2427ZM145.55 28.7674L144.417 33.8721L153.584 27.9678C153.654 27.9226 153.735 27.8985 153.819 27.8986H173.219C176.687 27.8986 179.509 25.3897 179.509 22.306V12.331C179.509 9.24738 176.687 6.73845 173.219 6.73845H145.917C142.448 6.73845 139.626 9.24738 139.626 12.331V22.306C139.626 25.3898 142.448 27.8986 145.917 27.8986C145.974 27.8981 146.031 27.909 146.084 27.9306C146.137 27.9522 146.185 27.9841 146.226 28.0245C146.266 28.0648 146.299 28.1129 146.321 28.1658C146.343 28.2188 146.354 28.2756 146.354 28.3329C146.354 28.3903 146.343 28.4471 146.321 28.5001C146.299 28.553 146.266 28.6011 146.226 28.6414C146.185 28.6818 146.137 28.7137 146.084 28.7353C146.031 28.7569 145.974 28.7678 145.917 28.7673L145.55 28.7674Z" fill="url(#paint27_linear_921_1089)"/>
<path d="M158.717 9.51265L156.862 13.2791C156.794 13.4174 156.694 13.5369 156.569 13.6275C156.445 13.7181 156.3 13.777 156.148 13.7992L152.002 14.4031C151.827 14.4286 151.662 14.5028 151.527 14.6172C151.391 14.7315 151.291 14.8816 151.236 15.0504C151.181 15.2192 151.175 15.3999 151.217 15.5722C151.26 15.7445 151.349 15.9014 151.476 16.0253L154.476 18.957C154.586 19.0647 154.669 19.1975 154.716 19.3442C154.764 19.4908 154.775 19.6469 154.749 19.7988L154.041 23.9385C154.011 24.1134 154.03 24.2932 154.097 24.4575C154.164 24.6219 154.275 24.7643 154.418 24.8686C154.561 24.9729 154.731 25.035 154.907 25.0478C155.084 25.0606 155.26 25.0236 155.417 24.941L159.126 22.9866C159.262 22.9148 159.413 22.8773 159.567 22.8773C159.721 22.8773 159.872 22.9148 160.008 22.9866L163.717 24.941C163.874 25.0236 164.05 25.0606 164.227 25.0478C164.403 25.035 164.573 24.9729 164.716 24.8686C164.859 24.7643 164.971 24.6219 165.037 24.4576C165.104 24.2932 165.124 24.1134 165.094 23.9385L164.385 19.7988C164.359 19.6469 164.37 19.4908 164.418 19.3442C164.465 19.1976 164.548 19.0647 164.658 18.957L167.658 16.0253C167.785 15.9014 167.875 15.7445 167.917 15.5722C167.96 15.3999 167.953 15.2192 167.898 15.0504C167.844 14.8816 167.743 14.7316 167.608 14.6172C167.472 14.5028 167.308 14.4286 167.132 14.4031L162.987 13.7994C162.834 13.7772 162.69 13.7183 162.566 13.6277C162.441 13.5371 162.34 13.4175 162.272 13.2793L160.418 9.51282C160.34 9.3537 160.219 9.21972 160.068 9.12603C159.918 9.03234 159.744 8.98268 159.567 8.98267C159.39 8.98265 159.217 9.03227 159.067 9.12593C158.916 9.21959 158.795 9.35355 158.717 9.51265Z" fill="url(#paint28_linear_921_1089)"/>
<path d="M10.9651 247.315C10.7462 247.315 10.5353 247.231 10.375 247.082C10.2146 246.933 10.1166 246.728 10.1007 246.509L6.15459 191.903C6.14167 191.724 6.18468 191.545 6.2777 191.391C6.37072 191.237 6.50914 191.115 6.67385 191.044C6.83856 190.972 7.02143 190.953 7.19719 190.99C7.37295 191.027 7.53293 191.118 7.65502 191.25L35.2823 221.157C35.4325 221.32 35.515 221.534 35.5129 221.756C35.5109 221.977 35.4244 222.19 35.2713 222.35L11.5901 247.048C11.5091 247.132 11.412 247.199 11.3047 247.245C11.1973 247.291 11.0818 247.315 10.9651 247.315ZM8.06206 194.248L11.6887 244.438L33.4552 221.737L8.06206 194.248Z" fill="url(#paint29_linear_921_1089)"/>
<path d="M34.6465 222.616C34.5271 222.616 34.409 222.592 34.2995 222.544C34.1901 222.496 34.0917 222.426 34.0105 222.338L6.38326 192.431C6.24581 192.282 6.16457 192.09 6.15362 191.888C6.14266 191.685 6.20268 191.485 6.32328 191.323C6.44388 191.16 6.61747 191.044 6.81396 190.997C7.01046 190.949 7.2175 190.971 7.3992 191.06L61.1952 217.379C61.3622 217.46 61.4985 217.594 61.5842 217.759C61.6698 217.924 61.7001 218.113 61.6708 218.297C61.6414 218.481 61.5538 218.65 61.4209 218.781C61.2881 218.911 61.117 218.995 60.9329 219.02L34.7642 222.609C34.7251 222.614 34.6858 222.616 34.6465 222.616ZM10.8032 194.659L34.9757 220.826L57.872 217.686L10.8032 194.659Z" fill="url(#paint30_linear_921_1089)"/>
<path d="M35.1022 238.593C34.9372 238.593 34.7756 238.546 34.6365 238.457C34.4974 238.368 34.3865 238.241 34.3169 238.091L29.17 227.007C29.0736 226.798 29.0638 226.559 29.1427 226.343C29.2216 226.127 29.3828 225.951 29.5909 225.854C29.799 225.757 30.037 225.747 30.2527 225.825C30.4684 225.904 30.6442 226.065 30.7415 226.274L34.1163 233.542L33.7804 221.772C33.7739 221.542 33.8589 221.319 34.0166 221.151C34.1743 220.984 34.3919 220.886 34.6216 220.879C34.8505 220.876 35.0717 220.962 35.2381 221.12C35.4045 221.277 35.503 221.494 35.5127 221.723L35.9689 237.7C35.9745 237.899 35.9113 238.095 35.7899 238.254C35.6684 238.412 35.4961 238.524 35.302 238.57C35.2365 238.585 35.1694 238.593 35.1022 238.593Z" fill="url(#paint31_linear_921_1089)"/>
<path d="M204.731 49.6681C207.695 49.5059 210.597 48.7539 213.268 47.4562C213.938 47.1328 212.565 48.6918 211.605 49.1231C206.783 51.2901 204.455 50.9567 204.455 50.9567L204.731 49.6681Z" fill="#D8A38F"/>
<path d="M199.135 152.973L196.183 152.168L146.736 216.114L149.804 226.273L199.135 152.973Z" fill="url(#paint32_linear_921_1089)"/>
<path d="M298.378 181.398L295.112 170.63L217.597 146.91L215.332 149.594L215.431 149.637L298.378 181.398Z" fill="url(#paint33_linear_921_1089)"/>
<path d="M10.0449 101.48L53.6474 95.0033L41.6665 137.526L10.0449 101.48Z" fill="url(#paint34_linear_921_1089)"/>
<path d="M65.9187 52.3478L53.9844 94.8296L97.5869 88.3536L65.9187 52.3478Z" fill="url(#paint35_linear_921_1089)"/>
<path d="M97.2494 88.527L49.392 91.3568L41.666 137.526L97.2494 88.527Z" fill="url(#paint36_linear_921_1089)"/>
<path d="M48.6571 95.7228L47.2101 95.9595L38.3145 133.705L41.6664 137.526L48.6571 95.7228Z" fill="url(#paint37_linear_921_1089)"/>
<path d="M97.5857 88.3536L94.0262 84.3066L55.5087 89.3998L55.0527 91.0221L55.1046 91.0207L97.5857 88.3536Z" fill="url(#paint38_linear_921_1089)"/>
<path d="M255.878 228.164L268.587 261.853L232.725 259.663L255.878 228.164Z" fill="url(#paint39_linear_921_1089)"/>
<path d="M304.605 264.251L268.783 262.091L281.492 295.779L304.605 264.251Z" fill="url(#paint40_linear_921_1089)"/>
<path d="M281.295 295.541L270.746 257.823L232.725 259.663L281.295 295.541Z" fill="url(#paint41_linear_921_1089)"/>
<path d="M267.149 257.993L266.71 256.879L235.179 256.324L232.725 259.663L267.149 257.993Z" fill="url(#paint42_linear_921_1089)"/>
<path d="M281.49 295.779L284.088 292.236L273.36 262.367L271.992 262.285L272.002 262.326L281.49 295.779Z" fill="url(#paint43_linear_921_1089)"/>
</g>
<defs>
<linearGradient id="paint0_linear_921_1089" x1="267.747" y1="219.211" x2="302.453" y2="265.531" gradientUnits="userSpaceOnUse">
<stop offset="0.4018" stop-color="#8ECAE6"/>
<stop offset="0.412" stop-color="#8BC9E5"/>
<stop offset="0.6002" stop-color="#5EB6D3"/>
<stop offset="0.7677" stop-color="#3DA9C7"/>
<stop offset="0.9067" stop-color="#28A1BF"/>
<stop offset="1" stop-color="#219EBC"/>
</linearGradient>
<linearGradient id="paint1_linear_921_1089" x1="247.915" y1="234.13" x2="289.386" y2="289.477" gradientUnits="userSpaceOnUse">
<stop offset="0.4018" stop-color="#8ECAE6"/>
<stop offset="0.412" stop-color="#8BC9E5"/>
<stop offset="0.6002" stop-color="#5EB6D3"/>
<stop offset="0.7677" stop-color="#3DA9C7"/>
<stop offset="0.9067" stop-color="#28A1BF"/>
<stop offset="1" stop-color="#219EBC"/>
</linearGradient>
<linearGradient id="paint2_linear_921_1089" x1="2.4376" y1="84.879" x2="67.0113" y2="55.5374" gradientUnits="userSpaceOnUse">
<stop offset="0.4018" stop-color="#8ECAE6"/>
<stop offset="0.412" stop-color="#8BC9E5"/>
<stop offset="0.6002" stop-color="#5EB6D3"/>
<stop offset="0.7677" stop-color="#3DA9C7"/>
<stop offset="0.9067" stop-color="#28A1BF"/>
<stop offset="1" stop-color="#219EBC"/>
</linearGradient>
<linearGradient id="paint3_linear_921_1089" x1="15.1001" y1="112.605" x2="92.2595" y2="77.5445" gradientUnits="userSpaceOnUse">
<stop offset="0.4018" stop-color="#8ECAE6"/>
<stop offset="0.412" stop-color="#8BC9E5"/>
<stop offset="0.6002" stop-color="#5EB6D3"/>
<stop offset="0.7677" stop-color="#3DA9C7"/>
<stop offset="0.9067" stop-color="#28A1BF"/>
<stop offset="1" stop-color="#219EBC"/>
</linearGradient>
<linearGradient id="paint4_linear_921_1089" x1="120.744" y1="92.322" x2="268.641" y2="92.322" gradientUnits="userSpaceOnUse">
<stop offset="0.4018" stop-color="#8ECAE6"/>
<stop offset="0.412" stop-color="#8BC9E5"/>
<stop offset="0.6002" stop-color="#5EB6D3"/>
<stop offset="0.7677" stop-color="#3DA9C7"/>
<stop offset="0.9067" stop-color="#28A1BF"/>
<stop offset="1" stop-color="#219EBC"/>
</linearGradient>
<linearGradient id="paint5_linear_921_1089" x1="117.393" y1="21.8793" x2="63.3553" y2="24.735" gradientUnits="userSpaceOnUse">
<stop stop-color="#FFF33B"/>
<stop offset="0.0401" stop-color="#FEE72E"/>
<stop offset="0.1171" stop-color="#FED51B"/>
<stop offset="0.1964" stop-color="#FDCA10"/>
<stop offset="0.2809" stop-color="#FDC70C"/>
<stop offset="0.6685" stop-color="#F3903F"/>
<stop offset="0.8876" stop-color="#ED683C"/>
<stop offset="1" stop-color="#E93E3A"/>
</linearGradient>
<linearGradient id="paint6_linear_921_1089" x1="81.7343" y1="21.3669" x2="60.0548" y2="22.5127" gradientUnits="userSpaceOnUse">
<stop stop-color="#FFF33B"/>
<stop offset="0.0401" stop-color="#FEE72E"/>
<stop offset="0.1171" stop-color="#FED51B"/>
<stop offset="0.1964" stop-color="#FDCA10"/>
<stop offset="0.2809" stop-color="#FDC70C"/>
<stop offset="0.6685" stop-color="#F3903F"/>
<stop offset="0.8876" stop-color="#ED683C"/>
<stop offset="1" stop-color="#E93E3A"/>
</linearGradient>
<linearGradient id="paint7_linear_921_1089" x1="125.565" y1="34.8028" x2="102.393" y2="36.0273" gradientUnits="userSpaceOnUse">
<stop stop-color="#FFF33B"/>
<stop offset="0.0401" stop-color="#FEE72E"/>
<stop offset="0.1171" stop-color="#FED51B"/>
<stop offset="0.1964" stop-color="#FDCA10"/>
<stop offset="0.2809" stop-color="#FDC70C"/>
<stop offset="0.6685" stop-color="#F3903F"/>
<stop offset="0.8876" stop-color="#ED683C"/>
<stop offset="1" stop-color="#E93E3A"/>
</linearGradient>
<linearGradient id="paint8_linear_921_1089" x1="125.565" y1="34.8028" x2="102.393" y2="36.0273" gradientUnits="userSpaceOnUse">
<stop stop-color="#FFF33B"/>
<stop offset="0.0401" stop-color="#FEE72E"/>
<stop offset="0.1171" stop-color="#FED51B"/>
<stop offset="0.1964" stop-color="#FDCA10"/>
<stop offset="0.2809" stop-color="#FDC70C"/>
<stop offset="0.6685" stop-color="#F3903F"/>
<stop offset="0.8876" stop-color="#ED683C"/>
<stop offset="1" stop-color="#E93E3A"/>
</linearGradient>
<linearGradient id="paint9_linear_921_1089" x1="71.2182" y1="5.78751" x2="64.3792" y2="6.14892" gradientUnits="userSpaceOnUse">
<stop offset="0.4072" stop-color="#939598"/>
<stop offset="0.5343" stop-color="#878A8C"/>
<stop offset="0.8126" stop-color="#737678"/>
<stop offset="1" stop-color="#6C6F71"/>
</linearGradient>
<linearGradient id="paint10_linear_921_1089" x1="65.3143" y1="30.8469" x2="51.8186" y2="31.5601" gradientUnits="userSpaceOnUse">
<stop offset="0.4072" stop-color="#939598"/>
<stop offset="0.5343" stop-color="#878A8C"/>
<stop offset="0.8126" stop-color="#737678"/>
<stop offset="1" stop-color="#6C6F71"/>
</linearGradient>
<linearGradient id="paint11_linear_921_1089" x1="65.0005" y1="24.8117" x2="45.4679" y2="25.8439" gradientUnits="userSpaceOnUse">
<stop offset="0.4072" stop-color="#939598"/>
<stop offset="0.5343" stop-color="#878A8C"/>
<stop offset="0.8126" stop-color="#737678"/>
<stop offset="1" stop-color="#6C6F71"/>
</linearGradient>
<linearGradient id="paint12_linear_921_1089" x1="68.9396" y1="6.88869" x2="55.3141" y2="7.60873" gradientUnits="userSpaceOnUse">
<stop offset="0.4072" stop-color="#939598"/>
<stop offset="0.5343" stop-color="#878A8C"/>
<stop offset="0.8126" stop-color="#737678"/>
<stop offset="1" stop-color="#6C6F71"/>
</linearGradient>
<linearGradient id="paint13_linear_921_1089" x1="66.4595" y1="15.9606" x2="44.9227" y2="17.0987" gradientUnits="userSpaceOnUse">
<stop offset="0.4072" stop-color="#939598"/>
<stop offset="0.5343" stop-color="#878A8C"/>
<stop offset="0.8126" stop-color="#737678"/>
<stop offset="1" stop-color="#6C6F71"/>
</linearGradient>
<linearGradient id="paint14_linear_921_1089" x1="104.256" y1="57.3433" x2="124.729" y2="57.3433" gradientUnits="userSpaceOnUse">
<stop offset="0.4018" stop-color="#EDCCC3"/>
<stop offset="0.6145" stop-color="#E3B9AA"/>
<stop offset="0.8448" stop-color="#DBA996"/>
<stop offset="1" stop-color="#D8A38F"/>
</linearGradient>
<linearGradient id="paint15_linear_921_1089" x1="97.6093" y1="56.17" x2="111.38" y2="56.17" gradientUnits="userSpaceOnUse">
<stop offset="0.4018" stop-color="#EDCCC3"/>
<stop offset="0.6145" stop-color="#E3B9AA"/>
<stop offset="0.8448" stop-color="#DBA996"/>
<stop offset="1" stop-color="#D8A38F"/>
</linearGradient>
<linearGradient id="paint16_linear_921_1089" x1="34.236" y1="239.912" x2="202.565" y2="239.912" gradientUnits="userSpaceOnUse">
<stop offset="0.3965" stop-color="#FE7F2D"/>
<stop offset="0.4797" stop-color="#FE8E32"/>
<stop offset="0.697" stop-color="#FDAE3D"/>
<stop offset="0.8783" stop-color="#FCC344"/>
<stop offset="1" stop-color="#FCCA46"/>
</linearGradient>
<linearGradient id="paint17_linear_921_1089" x1="120.867" y1="155.933" x2="297.59" y2="155.933" gradientUnits="userSpaceOnUse">
<stop offset="0.4018" stop-color="#8ECAE6"/>
<stop offset="0.412" stop-color="#8BC9E5"/>
<stop offset="0.6002" stop-color="#5EB6D3"/>
<stop offset="0.7677" stop-color="#3DA9C7"/>
<stop offset="0.9067" stop-color="#28A1BF"/>
<stop offset="1" stop-color="#219EBC"/>
</linearGradient>
<linearGradient id="paint18_linear_921_1089" x1="115.498" y1="78.6377" x2="186.077" y2="78.5814" gradientUnits="userSpaceOnUse">
<stop stop-color="#32B89E"/>
<stop offset="0.2535" stop-color="#2CA992"/>
<stop offset="0.6996" stop-color="#259580"/>
<stop offset="1" stop-color="#228E7A"/>
</linearGradient>
<linearGradient id="paint19_linear_921_1089" x1="190.881" y1="56.1059" x2="228.778" y2="56.1059" gradientUnits="userSpaceOnUse">
<stop offset="0.4018" stop-color="#EDCCC3"/>
<stop offset="0.6145" stop-color="#E3B9AA"/>
<stop offset="0.8448" stop-color="#DBA996"/>
<stop offset="1" stop-color="#D8A38F"/>
</linearGradient>
<linearGradient id="paint20_linear_921_1089" x1="174.234" y1="112.582" x2="235.654" y2="112.582" gradientUnits="userSpaceOnUse">
<stop stop-color="#32B89E"/>
<stop offset="0.2535" stop-color="#2CA992"/>
<stop offset="0.6996" stop-color="#259580"/>
<stop offset="1" stop-color="#228E7A"/>
</linearGradient>
<linearGradient id="paint21_linear_921_1089" x1="223.986" y1="100.593" x2="257.672" y2="104.445" gradientUnits="userSpaceOnUse">
<stop stop-color="#32B89E"/>
<stop offset="0.2535" stop-color="#2CA992"/>
<stop offset="0.6996" stop-color="#259580"/>
<stop offset="1" stop-color="#228E7A"/>
</linearGradient>
<linearGradient id="paint22_linear_921_1089" x1="120.867" y1="178.352" x2="209.228" y2="178.352" gradientUnits="userSpaceOnUse">
<stop offset="0.4018" stop-color="#8ECAE6"/>
<stop offset="0.412" stop-color="#8BC9E5"/>
<stop offset="0.6002" stop-color="#5EB6D3"/>
<stop offset="0.7677" stop-color="#3DA9C7"/>
<stop offset="0.9067" stop-color="#28A1BF"/>
<stop offset="1" stop-color="#219EBC"/>
</linearGradient>
<linearGradient id="paint23_linear_921_1089" x1="210.018" y1="133.496" x2="298.379" y2="133.496" gradientUnits="userSpaceOnUse">
<stop offset="0.4018" stop-color="#8ECAE6"/>
<stop offset="0.412" stop-color="#8BC9E5"/>
<stop offset="0.6002" stop-color="#5EB6D3"/>
<stop offset="0.7677" stop-color="#3DA9C7"/>
<stop offset="0.9067" stop-color="#28A1BF"/>
<stop offset="1" stop-color="#219EBC"/>
</linearGradient>
<linearGradient id="paint24_linear_921_1089" x1="149.803" y1="185.798" x2="297.59" y2="185.798" gradientUnits="userSpaceOnUse">
<stop offset="0.4018" stop-color="#8ECAE6"/>
<stop offset="0.412" stop-color="#8BC9E5"/>
<stop offset="0.6002" stop-color="#5EB6D3"/>
<stop offset="0.7677" stop-color="#3DA9C7"/>
<stop offset="0.9067" stop-color="#28A1BF"/>
<stop offset="1" stop-color="#219EBC"/>
</linearGradient>
<linearGradient id="paint25_linear_921_1089" x1="214.717" y1="197.027" x2="272.83" y2="197.027" gradientUnits="userSpaceOnUse">
<stop offset="0.3965" stop-color="#FE7F2D"/>
<stop offset="0.4797" stop-color="#FE8E32"/>
<stop offset="0.697" stop-color="#FDAE3D"/>
<stop offset="0.8783" stop-color="#FCC344"/>
<stop offset="1" stop-color="#FCCA46"/>
</linearGradient>
<linearGradient id="paint26_linear_921_1089" x1="233.18" y1="192.24" x2="254.366" y2="192.24" gradientUnits="userSpaceOnUse">
<stop offset="0.3965" stop-color="#FE7F2D"/>
<stop offset="0.4797" stop-color="#FE8E32"/>
<stop offset="0.697" stop-color="#FDAE3D"/>
<stop offset="0.8783" stop-color="#FCC344"/>
<stop offset="1" stop-color="#FCCA46"/>
</linearGradient>
<linearGradient id="paint27_linear_921_1089" x1="138.76" y1="20.5562" x2="180.375" y2="20.5562" gradientUnits="userSpaceOnUse">
<stop stop-color="#FFF33B"/>
<stop offset="0.0401" stop-color="#FEE72E"/>
<stop offset="0.1171" stop-color="#FED51B"/>
<stop offset="0.1964" stop-color="#FDCA10"/>
<stop offset="0.2809" stop-color="#FDC70C"/>
<stop offset="0.6685" stop-color="#F3903F"/>
<stop offset="0.8876" stop-color="#ED683C"/>
<stop offset="1" stop-color="#E93E3A"/>
</linearGradient>
<linearGradient id="paint28_linear_921_1089" x1="151.188" y1="17.0176" x2="167.946" y2="17.0176" gradientUnits="userSpaceOnUse">
<stop stop-color="#FFF33B"/>
<stop offset="0.0401" stop-color="#FEE72E"/>
<stop offset="0.1171" stop-color="#FED51B"/>
<stop offset="0.1964" stop-color="#FDCA10"/>
<stop offset="0.2809" stop-color="#FDC70C"/>
<stop offset="0.6685" stop-color="#F3903F"/>
<stop offset="0.8876" stop-color="#ED683C"/>
<stop offset="1" stop-color="#E93E3A"/>
</linearGradient>
<linearGradient id="paint29_linear_921_1089" x1="6.15236" y1="219.143" x2="35.5129" y2="219.143" gradientUnits="userSpaceOnUse">
<stop offset="0.3965" stop-color="#FE7F2D"/>
<stop offset="0.4797" stop-color="#FE8E32"/>
<stop offset="0.697" stop-color="#FDAE3D"/>
<stop offset="0.8783" stop-color="#FCC344"/>
<stop offset="1" stop-color="#FCCA46"/>
</linearGradient>
<linearGradient id="paint30_linear_921_1089" x1="6.15253" y1="206.794" x2="61.6819" y2="206.794" gradientUnits="userSpaceOnUse">
<stop offset="0.3965" stop-color="#FE7F2D"/>
<stop offset="0.4797" stop-color="#FE8E32"/>
<stop offset="0.697" stop-color="#FDAE3D"/>
<stop offset="0.8783" stop-color="#FCC344"/>
<stop offset="1" stop-color="#FCCA46"/>
</linearGradient>
<linearGradient id="paint31_linear_921_1089" x1="29.0888" y1="229.736" x2="35.9691" y2="229.736" gradientUnits="userSpaceOnUse">
<stop offset="0.3965" stop-color="#FE7F2D"/>
<stop offset="0.4797" stop-color="#FE8E32"/>
<stop offset="0.697" stop-color="#FDAE3D"/>
<stop offset="0.8783" stop-color="#FCC344"/>
<stop offset="1" stop-color="#FCCA46"/>
</linearGradient>
<linearGradient id="paint32_linear_921_1089" x1="146.736" y1="189.221" x2="199.135" y2="189.221" gradientUnits="userSpaceOnUse">
<stop offset="0.4018" stop-color="#7BAEE9"/>
<stop offset="0.5379" stop-color="#5F9DE4"/>
<stop offset="0.7309" stop-color="#3F88DE"/>
<stop offset="0.8919" stop-color="#2A7CDA"/>
<stop offset="1" stop-color="#2377D9"/>
</linearGradient>
<linearGradient id="paint33_linear_921_1089" x1="215.332" y1="164.154" x2="298.378" y2="164.154" gradientUnits="userSpaceOnUse">
<stop offset="0.4018" stop-color="#7BAEE9"/>
<stop offset="0.5379" stop-color="#5F9DE4"/>
<stop offset="0.7309" stop-color="#3F88DE"/>
<stop offset="0.8919" stop-color="#2A7CDA"/>
<stop offset="1" stop-color="#2377D9"/>
</linearGradient>
<linearGradient id="paint34_linear_921_1089" x1="19.5441" y1="122.385" x2="58.1238" y2="104.855" gradientUnits="userSpaceOnUse">
<stop offset="0.4018" stop-color="#8ECAE6"/>
<stop offset="0.412" stop-color="#8BC9E5"/>
<stop offset="0.6002" stop-color="#5EB6D3"/>
<stop offset="0.7677" stop-color="#3DA9C7"/>
<stop offset="0.9067" stop-color="#28A1BF"/>
<stop offset="1" stop-color="#219EBC"/>
</linearGradient>
<linearGradient id="paint35_linear_921_1089" x1="49.544" y1="85.0579" x2="88.1237" y2="67.5277" gradientUnits="userSpaceOnUse">
<stop offset="0.4018" stop-color="#8ECAE6"/>
<stop offset="0.412" stop-color="#8BC9E5"/>
<stop offset="0.6002" stop-color="#5EB6D3"/>
<stop offset="0.7677" stop-color="#3DA9C7"/>
<stop offset="0.9067" stop-color="#28A1BF"/>
<stop offset="1" stop-color="#219EBC"/>
</linearGradient>
<linearGradient id="paint36_linear_921_1089" x1="33.6427" y1="119.869" x2="98.1683" y2="90.5494" gradientUnits="userSpaceOnUse">
<stop offset="0.4018" stop-color="#8ECAE6"/>
<stop offset="0.412" stop-color="#8BC9E5"/>
<stop offset="0.6002" stop-color="#5EB6D3"/>
<stop offset="0.7677" stop-color="#3DA9C7"/>
<stop offset="0.9067" stop-color="#28A1BF"/>
<stop offset="1" stop-color="#219EBC"/>
</linearGradient>
<linearGradient id="paint37_linear_921_1089" x1="32.9836" y1="121.973" x2="55.8615" y2="111.578" gradientUnits="userSpaceOnUse">
<stop offset="0.4018" stop-color="#7BAEE9"/>
<stop offset="0.5379" stop-color="#5F9DE4"/>
<stop offset="0.7309" stop-color="#3F88DE"/>
<stop offset="0.8919" stop-color="#2A7CDA"/>
<stop offset="1" stop-color="#2377D9"/>
</linearGradient>
<linearGradient id="paint38_linear_921_1089" x1="57.9388" y1="97.3736" x2="94.1978" y2="80.898" gradientUnits="userSpaceOnUse">
<stop offset="0.4018" stop-color="#7BAEE9"/>
<stop offset="0.5379" stop-color="#5F9DE4"/>
<stop offset="0.7309" stop-color="#3F88DE"/>
<stop offset="0.8919" stop-color="#2A7CDA"/>
<stop offset="1" stop-color="#2377D9"/>
</linearGradient>
<linearGradient id="paint39_linear_921_1089" x1="240.917" y1="239.375" x2="261.652" y2="267.048" gradientUnits="userSpaceOnUse">
<stop offset="0.4018" stop-color="#8ECAE6"/>
<stop offset="0.412" stop-color="#8BC9E5"/>
<stop offset="0.6002" stop-color="#5EB6D3"/>
<stop offset="0.7677" stop-color="#3DA9C7"/>
<stop offset="0.9067" stop-color="#28A1BF"/>
<stop offset="1" stop-color="#219EBC"/>
</linearGradient>
<linearGradient id="paint40_linear_921_1089" x1="275.777" y1="256.851" x2="296.512" y2="284.525" gradientUnits="userSpaceOnUse">
<stop offset="0.4018" stop-color="#8ECAE6"/>
<stop offset="0.412" stop-color="#8BC9E5"/>
<stop offset="0.6002" stop-color="#5EB6D3"/>
<stop offset="0.7677" stop-color="#3DA9C7"/>
<stop offset="0.9067" stop-color="#28A1BF"/>
<stop offset="1" stop-color="#219EBC"/>
</linearGradient>
<linearGradient id="paint41_linear_921_1089" x1="245.361" y1="250.195" x2="280.042" y2="296.48" gradientUnits="userSpaceOnUse">
<stop offset="0.4018" stop-color="#8ECAE6"/>
<stop offset="0.412" stop-color="#8BC9E5"/>
<stop offset="0.6002" stop-color="#5EB6D3"/>
<stop offset="0.7677" stop-color="#3DA9C7"/>
<stop offset="0.9067" stop-color="#28A1BF"/>
<stop offset="1" stop-color="#219EBC"/>
</linearGradient>
<linearGradient id="paint42_linear_921_1089" x1="243.575" y1="250.033" x2="255.871" y2="266.444" gradientUnits="userSpaceOnUse">
<stop offset="0.4018" stop-color="#7BAEE9"/>
<stop offset="0.5379" stop-color="#5F9DE4"/>
<stop offset="0.7309" stop-color="#3F88DE"/>
<stop offset="0.8919" stop-color="#2A7CDA"/>
<stop offset="1" stop-color="#2377D9"/>
</linearGradient>
<linearGradient id="paint43_linear_921_1089" x1="267.447" y1="265.691" x2="286.935" y2="291.7" gradientUnits="userSpaceOnUse">
<stop offset="0.4018" stop-color="#7BAEE9"/>
<stop offset="0.5379" stop-color="#5F9DE4"/>
<stop offset="0.7309" stop-color="#3F88DE"/>
<stop offset="0.8919" stop-color="#2A7CDA"/>
<stop offset="1" stop-color="#2377D9"/>
</linearGradient>
<clipPath id="clip0_921_1089">
<rect width="313" height="319" fill="white"/>
</clipPath>
</defs>
</svg>
